<svg version="1.1" viewBox="0.0 0.0 1920.0 1080.0" fill="none" stroke="none" stroke-linecap="square" stroke-miterlimit="10" xmlns:xlink="http://www.w3.org/1999/xlink" xmlns="http://www.w3.org/2000/svg"><clipPath id="p.0"><path d="m0 0l1920.0 0l0 1080.0l-1920.0 0l0 -1080.0z" clip-rule="nonzero"/></clipPath><g clip-path="url(#p.0)"><defs><linearGradient id="p.1" gradientUnits="userSpaceOnUse" gradientTransform="matrix(32.86345919692566 0.0 0.0 32.86345919692566 0.0 0.0)" spreadMethod="pad" x1="7.656013635565193E-10" y1="-2.1149267578323422E-4" x2="-1.1896463488845178E-4" y2="32.86324770403454"><stop offset="0.0" stop-color="#fcf5ef"/><stop offset="1.4E-45" stop-color="#fdd4ac"/><stop offset="0.98" stop-color="#ffedde"/><stop offset="0.99999994" stop-color="#e9e0d8"/><stop offset="1.0" stop-color="#737373"/></linearGradient></defs><path fill="url(#p.1)" d="m0 0l1920.0 0l0 1080.0l-1920.0 0z" fill-rule="evenodd"/><path fill="#f3f3f3" d="m-0.031496063 0l663.5591 0l0 340.9449l-663.5591 0z" fill-rule="evenodd"/><path fill="#f3f3f3" d="m-0.031496063 340.62204l0 737.6063l663.5591 -737.6063z" fill-rule="evenodd"/><path fill="#f3f3f3" d="m1258.7926 -0.01968504l663.5591 0l0 340.9449l-663.5591 0z" fill-rule="evenodd"/><path fill="#f3f3f3" d="m1922.3517 340.62204l0 737.6063l-663.5591 -737.6063z" fill-rule="evenodd"/><path fill="#000000" fill-opacity="0.0" d="m665.8583 -0.007874016l-2.3306885 340.6299" fill-rule="evenodd"/><path stroke="#000000" stroke-width="1.0" stroke-linejoin="round" stroke-linecap="butt" d="m665.8583 -0.007874016l-2.3306885 340.6299" fill-rule="evenodd"/><path fill="#000000" fill-opacity="0.0" d="m663.5276 340.62204l-663.5591 737.6063" fill-rule="evenodd"/><path stroke="#000000" stroke-width="2.0" stroke-linejoin="round" stroke-linecap="butt" d="m663.5276 340.62204l-663.5591 737.6063" fill-rule="evenodd"/><path fill="#000000" fill-opacity="0.0" d="m1257.6273 0.87401575l2.3306885 340.6299" fill-rule="evenodd"/><path stroke="#000000" stroke-width="1.0" stroke-linejoin="round" stroke-linecap="butt" d="m1257.6273 0.87401575l2.3306885 340.6299" fill-rule="evenodd"/><path fill="#000000" fill-opacity="0.0" d="m1259.958 341.50394l663.5591 737.6063" fill-rule="evenodd"/><path stroke="#000000" stroke-width="2.0" stroke-linejoin="round" stroke-linecap="butt" d="m1259.958 341.50394l663.5591 737.6063" fill-rule="evenodd"/><path fill="#000000" fill-opacity="0.0" d="m0.031496063 -0.03937008l-0.062992126 1078.2678" fill-rule="evenodd"/><path stroke="#000000" stroke-width="1.0" stroke-linejoin="round" stroke-linecap="butt" d="m0.031496063 -0.03937008l-0.062992126 1078.2678" fill-rule="evenodd"/><path fill="#000000" fill-opacity="0.0" d="m1920.063 -0.01968504l-0.06298828 1078.2677" fill-rule="evenodd"/><path stroke="#000000" stroke-width="1.0" stroke-linejoin="round" stroke-linecap="butt" d="m1920.063 -0.01968504l-0.06298828 1078.2677" fill-rule="evenodd"/><defs><linearGradient id="p.2" gradientUnits="userSpaceOnUse" gradientTransform="matrix(18.464751540191838 0.0 0.0 18.464751540191838 0.0 0.0)" spreadMethod="pad" x1="35.8074600451138" y1="0.03826175872184615" x2="35.807393414649916" y2="18.503013298793462"><stop offset="0.0" stop-color="#964b00"/><stop offset="0.04" stop-color="#964b00"/><stop offset="0.99999994" stop-color="#6d3600"/><stop offset="1.0" stop-color="#737373"/></linearGradient></defs><path fill="url(#p.2)" d="m661.17584 0.70866144l598.77167 0l0 340.9449l-598.77167 0z" fill-rule="evenodd"/><path stroke="#000000" stroke-width="1.0" stroke-linejoin="round" stroke-linecap="butt" d="m661.17584 0.70866144l598.77167 0l0 340.9449l-598.77167 0z" fill-rule="evenodd"/><path fill="#000000" fill-opacity="0.0" d="m661.76904 72.350395l596.4724 0" fill-rule="evenodd"/><path stroke="#000000" stroke-width="3.0" stroke-linejoin="round" stroke-linecap="butt" d="m661.76904 72.350395l596.4724 0" fill-rule="evenodd"/><path fill="#000000" fill-opacity="0.0" d="m661.76904 143.99606l596.4724 0" fill-rule="evenodd"/><path stroke="#000000" stroke-width="3.0" stroke-linejoin="round" stroke-linecap="butt" d="m661.76904 143.99606l596.4724 0" fill-rule="evenodd"/><path fill="#000000" fill-opacity="0.0" d="m661.76904 215.64961l596.4724 0" fill-rule="evenodd"/><path stroke="#000000" stroke-width="3.0" stroke-linejoin="round" stroke-linecap="butt" d="m661.76904 215.64961l596.4724 0" fill-rule="evenodd"/><path fill="#000000" fill-opacity="0.0" d="m661.76904 289.05905l596.4724 0" fill-rule="evenodd"/><path stroke="#000000" stroke-width="3.0" stroke-linejoin="round" stroke-linecap="butt" d="m661.76904 289.05905l596.4724 0" fill-rule="evenodd"/><path fill="#000000" fill-opacity="0.0" d="m661.7638 1.7637795l596.5039 -2.7716537" fill-rule="evenodd"/><path stroke="#000000" stroke-width="2.0" stroke-linejoin="round" stroke-linecap="butt" d="m661.7638 1.7637795l596.5039 -2.7716537" fill-rule="evenodd"/><path fill="#000000" fill-opacity="0.0" d="m-1.7637795 0l1921.7638 0" fill-rule="evenodd"/><path stroke="#000000" stroke-width="1.0" stroke-linejoin="round" stroke-linecap="butt" d="m-1.7637795 0l1921.7638 0" fill-rule="evenodd"/></g></svg>