<svg version="1.1" viewBox="0.0 0.0 1920.0 1080.0" fill="none" stroke="none" stroke-linecap="square" stroke-miterlimit="10" xmlns:xlink="http://www.w3.org/1999/xlink" xmlns="http://www.w3.org/2000/svg"><clipPath id="p.0"><path d="m0 0l1920.0 0l0 1080.0l-1920.0 0l0 -1080.0z" clip-rule="nonzero"/></clipPath><g clip-path="url(#p.0)"><path fill="#999999" d="m0 0l1920.0 0l0 1080.0l-1920.0 0z" fill-rule="evenodd"/><path fill="#cccccc" d="m387.41208 0l1149.6378 0l0 1080.0l-1149.6378 0z" fill-rule="evenodd"/><path fill="#666666" d="m497.65353 142.94226l924.6929 0l0 937.0709l-924.6929 0z" fill-rule="evenodd"/><path stroke="#000000" stroke-width="4.0" stroke-linejoin="round" stroke-linecap="butt" d="m497.65353 142.94226l924.6929 0l0 937.0709l-924.6929 0z" fill-rule="evenodd"/><path fill="#434343" d="m531.17584 141.17586l42.48822 0l0 937.07086l-42.48822 0z" fill-rule="evenodd"/><path stroke="#000000" stroke-width="1.0" stroke-linejoin="round" stroke-linecap="butt" d="m531.17584 141.17586l42.48822 0l0 937.07086l-42.48822 0z" fill-rule="evenodd"/><path fill="#000000" fill-opacity="0.0" d="m529.41205 142.06036l0 938.83466" fill-rule="evenodd"/><path stroke="#efefef" stroke-width="4.0" stroke-linejoin="round" stroke-linecap="butt" d="m529.41205 142.06036l0 938.83466" fill-rule="evenodd"/><path fill="#000000" fill-opacity="0.0" d="m573.6483 142.06036l0 938.83466" fill-rule="evenodd"/><path stroke="#efefef" stroke-width="4.0" stroke-linejoin="round" stroke-linecap="butt" d="m573.6483 142.06036l0 938.83466" fill-rule="evenodd"/><path fill="#000000" fill-opacity="0.0" d="m1344.8215 142.06036l0 938.83466" fill-rule="evenodd"/><path stroke="#efefef" stroke-width="4.0" stroke-linejoin="round" stroke-linecap="butt" d="m1344.8215 142.06036l0 938.83466" fill-rule="evenodd"/><path fill="#000000" fill-opacity="0.0" d="m1389.0577 142.06036l0 938.83466" fill-rule="evenodd"/><path stroke="#efefef" stroke-width="4.0" stroke-linejoin="round" stroke-linecap="butt" d="m1389.0577 142.06036l0 938.83466" fill-rule="evenodd"/><path fill="#999999" d="m535.5932 186.18373l0 0c0 -8.28862 7.135193 -15.007874 15.937012 -15.007874l0 0c4.2267456 0 8.2803955 1.5811768 11.269165 4.395706c2.9887695 2.8145142 4.6677856 6.6318207 4.6677856 10.612167l0 0c0 8.28862 -7.135193 15.007874 -15.936951 15.007874l0 0c-8.801819 0 -15.937012 -6.7192535 -15.937012 -15.007874z" fill-rule="evenodd"/><path fill="#999999" d="m535.5932 255.12599l0 0c0 -8.28862 7.135193 -15.007889 15.937012 -15.007889l0 0c4.2267456 0 8.2803955 1.581192 11.269165 4.395706c2.9887695 2.8145294 4.6677856 6.631836 4.6677856 10.612183l0 0c0 8.28862 -7.135193 15.007858 -15.936951 15.007858l0 0c-8.801819 0 -15.937012 -6.7192383 -15.937012 -15.007858z" fill-rule="evenodd"/><path fill="#999999" d="m535.5932 324.06824l0 0c0 -8.288605 7.135193 -15.007874 15.937012 -15.007874l0 0c4.2267456 0 8.2803955 1.5811768 11.269165 4.3957214c2.9887695 2.8145142 4.6677856 6.6318054 4.6677856 10.612152l0 0c0 8.288635 -7.135193 15.007874 -15.936951 15.007874l0 0c-8.801819 0 -15.937012 -6.7192383 -15.937012 -15.007874z" fill-rule="evenodd"/><path fill="#999999" d="m535.5932 393.0105l0 0c0 -8.288605 7.135193 -15.007874 15.937012 -15.007874l0 0c4.2267456 0 8.2803955 1.5811768 11.269165 4.395691c2.9887695 2.8145447 4.6677856 6.631836 4.6677856 10.612183l0 0c0 8.288635 -7.135193 15.007874 -15.936951 15.007874l0 0c-8.801819 0 -15.937012 -6.7192383 -15.937012 -15.007874z" fill-rule="evenodd"/><path fill="#999999" d="m535.5932 461.95276l0 0c0 -8.288635 7.135193 -15.007874 15.937012 -15.007874l0 0c4.2267456 0 8.2803955 1.5811768 11.269165 4.395691c2.9887695 2.8145447 4.6677856 6.631836 4.6677856 10.612183l0 0c0 8.288605 -7.135193 15.007874 -15.936951 15.007874l0 0c-8.801819 0 -15.937012 -6.719269 -15.937012 -15.007874z" fill-rule="evenodd"/><path fill="#999999" d="m535.5932 530.895l0 0c0 -8.288635 7.135193 -15.007874 15.937012 -15.007874l0 0c4.2267456 0 8.2803955 1.5811768 11.269165 4.395691c2.9887695 2.8145142 4.6677856 6.631836 4.6677856 10.612183l0 0c0 8.288635 -7.135193 15.007874 -15.936951 15.007874l0 0c-8.801819 0 -15.937012 -6.7192383 -15.937012 -15.007874z" fill-rule="evenodd"/><path fill="#999999" d="m535.5932 599.8373l0 0c0 -8.288635 7.135193 -15.007874 15.937012 -15.007874l0 0c4.2267456 0 8.2803955 1.5811768 11.269165 4.395691c2.9887695 2.8145142 4.6677856 6.631836 4.6677856 10.612183l0 0c0 8.288635 -7.135193 15.007874 -15.936951 15.007874l0 0c-8.801819 0 -15.937012 -6.7192383 -15.937012 -15.007874z" fill-rule="evenodd"/><path fill="#999999" d="m535.5932 668.77954l0 0c0 -8.288635 7.135193 -15.007874 15.937012 -15.007874l0 0c4.2267456 0 8.2803955 1.5811768 11.269165 4.395691c2.9887695 2.8145142 4.6677856 6.631836 4.6677856 10.612183l0 0c0 8.288635 -7.135193 15.007874 -15.936951 15.007874l0 0c-8.801819 0 -15.937012 -6.7192383 -15.937012 -15.007874z" fill-rule="evenodd"/><path fill="#999999" d="m535.5932 737.7218l0 0c0 -8.288635 7.135193 -15.007874 15.937012 -15.007874l0 0c4.2267456 0 8.2803955 1.5811768 11.269165 4.395691c2.9887695 2.8145142 4.6677856 6.631836 4.6677856 10.612183l0 0c0 8.288574 -7.135193 15.007874 -15.936951 15.007874l0 0c-8.801819 0 -15.937012 -6.7192993 -15.937012 -15.007874z" fill-rule="evenodd"/><path fill="#999999" d="m535.5932 806.66406l0 0c0 -8.288635 7.135193 -15.007874 15.937012 -15.007874l0 0c4.2267456 0 8.2803955 1.5811768 11.269165 4.395691c2.9887695 2.8145142 4.6677856 6.631836 4.6677856 10.612183l0 0c0 8.288574 -7.135193 15.007874 -15.936951 15.007874l0 0c-8.801819 0 -15.937012 -6.7192993 -15.937012 -15.007874z" fill-rule="evenodd"/><path fill="#999999" d="m535.5932 875.6063l0 0c0 -8.288635 7.135193 -15.007874 15.937012 -15.007874l0 0c4.2267456 0 8.2803955 1.5811768 11.269165 4.395691c2.9887695 2.8145142 4.6677856 6.631836 4.6677856 10.612183l0 0c0 8.288574 -7.135193 15.007874 -15.936951 15.007874l0 0c-8.801819 0 -15.937012 -6.7192993 -15.937012 -15.007874z" fill-rule="evenodd"/><path fill="#434343" d="m1345.6956 142.94226l42.48816 0l0 937.0709l-42.48816 0z" fill-rule="evenodd"/><path stroke="#000000" stroke-width="1.0" stroke-linejoin="round" stroke-linecap="butt" d="m1345.6956 142.94226l42.48816 0l0 937.0709l-42.48816 0z" fill-rule="evenodd"/><path fill="#999999" d="m535.5932 944.5486l0 0c0 -8.288635 7.135193 -15.007874 15.937012 -15.007874l0 0c4.2267456 0 8.2803955 1.5811768 11.269165 4.395691c2.9887695 2.8145142 4.6677856 6.631836 4.6677856 10.612183l0 0c0 8.288574 -7.135193 15.007874 -15.936951 15.007874l0 0c-8.801819 0 -15.937012 -6.7192993 -15.937012 -15.007874z" fill-rule="evenodd"/><path fill="#999999" d="m535.5932 1013.4908l0 0c0 -8.288574 7.135193 -15.007874 15.937012 -15.007874l0 0c4.2267456 0 8.2803955 1.5812378 11.269165 4.395752c2.9887695 2.8145142 4.6677856 6.631836 4.6677856 10.612122l0 0c0 8.288635 -7.135193 15.007874 -15.936951 15.007874l0 0c-8.801819 0 -15.937012 -6.7192383 -15.937012 -15.007874z" fill-rule="evenodd"/><path fill="#999999" d="m1351.0027 186.18373l0 0c0 -8.28862 7.135132 -15.007874 15.93689 -15.007874l0 0c4.2268066 0 8.2803955 1.5811768 11.269165 4.395706c2.9887695 2.8145142 4.6678467 6.6318207 4.6678467 10.612167l0 0c0 8.28862 -7.135132 15.007874 -15.937012 15.007874l0 0c-8.801758 0 -15.93689 -6.7192535 -15.93689 -15.007874z" fill-rule="evenodd"/><path fill="#999999" d="m1351.0027 255.12599l0 0c0 -8.28862 7.135132 -15.007889 15.93689 -15.007889l0 0c4.2268066 0 8.2803955 1.581192 11.269165 4.395706c2.9887695 2.8145294 4.6678467 6.631836 4.6678467 10.612183l0 0c0 8.28862 -7.135132 15.007858 -15.937012 15.007858l0 0c-8.801758 0 -15.93689 -6.7192383 -15.93689 -15.007858z" fill-rule="evenodd"/><path fill="#999999" d="m1351.0027 324.06824l0 0c0 -8.288605 7.135132 -15.007874 15.93689 -15.007874l0 0c4.2268066 0 8.2803955 1.5811768 11.269165 4.3957214c2.9887695 2.8145142 4.6678467 6.6318054 4.6678467 10.612152l0 0c0 8.288635 -7.135132 15.007874 -15.937012 15.007874l0 0c-8.801758 0 -15.93689 -6.7192383 -15.93689 -15.007874z" fill-rule="evenodd"/><path fill="#999999" d="m1351.0027 393.0105l0 0c0 -8.288605 7.135132 -15.007874 15.93689 -15.007874l0 0c4.2268066 0 8.2803955 1.5811768 11.269165 4.395691c2.9887695 2.8145447 4.6678467 6.631836 4.6678467 10.612183l0 0c0 8.288635 -7.135132 15.007874 -15.937012 15.007874l0 0c-8.801758 0 -15.93689 -6.7192383 -15.93689 -15.007874z" fill-rule="evenodd"/><path fill="#999999" d="m1351.0027 461.95276l0 0c0 -8.288635 7.135132 -15.007874 15.93689 -15.007874l0 0c4.2268066 0 8.2803955 1.5811768 11.269165 4.395691c2.9887695 2.8145447 4.6678467 6.631836 4.6678467 10.612183l0 0c0 8.288605 -7.135132 15.007874 -15.937012 15.007874l0 0c-8.801758 0 -15.93689 -6.719269 -15.93689 -15.007874z" fill-rule="evenodd"/><path fill="#999999" d="m1351.0027 530.895l0 0c0 -8.288635 7.135132 -15.007874 15.93689 -15.007874l0 0c4.2268066 0 8.2803955 1.5811768 11.269165 4.395691c2.9887695 2.8145142 4.6678467 6.631836 4.6678467 10.612183l0 0c0 8.288635 -7.135132 15.007874 -15.937012 15.007874l0 0c-8.801758 0 -15.93689 -6.7192383 -15.93689 -15.007874z" fill-rule="evenodd"/><path fill="#999999" d="m1351.0027 599.8373l0 0c0 -8.288635 7.135132 -15.007874 15.93689 -15.007874l0 0c4.2268066 0 8.2803955 1.5811768 11.269165 4.395691c2.9887695 2.8145142 4.6678467 6.631836 4.6678467 10.612183l0 0c0 8.288635 -7.135132 15.007874 -15.937012 15.007874l0 0c-8.801758 0 -15.93689 -6.7192383 -15.93689 -15.007874z" fill-rule="evenodd"/><path fill="#999999" d="m1351.0027 668.77954l0 0c0 -8.288635 7.135132 -15.007874 15.93689 -15.007874l0 0c4.2268066 0 8.2803955 1.5811768 11.269165 4.395691c2.9887695 2.8145142 4.6678467 6.631836 4.6678467 10.612183l0 0c0 8.288635 -7.135132 15.007874 -15.937012 15.007874l0 0c-8.801758 0 -15.93689 -6.7192383 -15.93689 -15.007874z" fill-rule="evenodd"/><path fill="#999999" d="m1351.0027 737.7218l0 0c0 -8.288635 7.135132 -15.007874 15.93689 -15.007874l0 0c4.2268066 0 8.2803955 1.5811768 11.269165 4.395691c2.9887695 2.8145142 4.6678467 6.631836 4.6678467 10.612183l0 0c0 8.288574 -7.135132 15.007874 -15.937012 15.007874l0 0c-8.801758 0 -15.93689 -6.7192993 -15.93689 -15.007874z" fill-rule="evenodd"/><path fill="#999999" d="m1351.0027 806.66406l0 0c0 -8.288635 7.135132 -15.007874 15.93689 -15.007874l0 0c4.2268066 0 8.2803955 1.5811768 11.269165 4.395691c2.9887695 2.8145142 4.6678467 6.631836 4.6678467 10.612183l0 0c0 8.288574 -7.135132 15.007874 -15.937012 15.007874l0 0c-8.801758 0 -15.93689 -6.7192993 -15.93689 -15.007874z" fill-rule="evenodd"/><path fill="#999999" d="m1351.0027 875.6063l0 0c0 -8.288635 7.135132 -15.007874 15.93689 -15.007874l0 0c4.2268066 0 8.2803955 1.5811768 11.269165 4.395691c2.9887695 2.8145142 4.6678467 6.631836 4.6678467 10.612183l0 0c0 8.288574 -7.135132 15.007874 -15.937012 15.007874l0 0c-8.801758 0 -15.93689 -6.7192993 -15.93689 -15.007874z" fill-rule="evenodd"/><path fill="#999999" d="m1351.0027 944.5486l0 0c0 -8.288635 7.135132 -15.007874 15.93689 -15.007874l0 0c4.2268066 0 8.2803955 1.5811768 11.269165 4.395691c2.9887695 2.8145142 4.6678467 6.631836 4.6678467 10.612183l0 0c0 8.288574 -7.135132 15.007874 -15.937012 15.007874l0 0c-8.801758 0 -15.93689 -6.7192993 -15.93689 -15.007874z" fill-rule="evenodd"/><path fill="#999999" d="m1351.0027 1013.4908l0 0c0 -8.288574 7.135132 -15.007874 15.93689 -15.007874l0 0c4.2268066 0 8.2803955 1.5812378 11.269165 4.395752c2.9887695 2.8145142 4.6678467 6.631836 4.6678467 10.612122l0 0c0 8.288635 -7.135132 15.007874 -15.937012 15.007874l0 0c-8.801758 0 -15.93689 -6.7192383 -15.93689 -15.007874z" fill-rule="evenodd"/><defs><linearGradient id="p.1" gradientUnits="userSpaceOnUse" gradientTransform="matrix(25.19364415130223 0.0 0.0 25.19364415130223 0.0 0.0)" spreadMethod="pad" x1="56.117310072006276" y1="28.80281222832793" x2="51.74357318530771" y2="3.9917233512073325"><stop offset="0.0" stop-color="#8c8c8c"/><stop offset="0.62" stop-color="#666666"/><stop offset="1.0" stop-color="#404040"/></linearGradient></defs><path fill="url(#p.1)" d="m592.7848 225.87138l732.9133 0l0 515.30707l-732.9133 0z" fill-rule="evenodd"/><path stroke="#000000" stroke-width="3.0" stroke-linejoin="round" stroke-linecap="butt" d="m592.7848 225.87138l732.9133 0l0 515.30707l-732.9133 0z" fill-rule="evenodd"/><path fill="#000000" fill-opacity="0.0" d="m386.46982 -1.7637795l0 630.01575" fill-rule="evenodd"/><path stroke="#000000" stroke-width="3.0" stroke-linejoin="round" stroke-linecap="butt" d="m386.46982 -1.7637795l0 630.01575" fill-rule="evenodd"/><path fill="#000000" fill-opacity="0.0" d="m1534.3412 -1.7637795l0.9449463 631.77954" fill-rule="evenodd"/><path stroke="#000000" stroke-width="3.0" stroke-linejoin="round" stroke-linecap="butt" d="m1534.3412 -1.7637795l0.9449463 631.77954" fill-rule="evenodd"/><path fill="#bb5f00" d="m495.87402 1081.7743l0 -582.3622l-495.87402 582.3622z" fill-rule="evenodd"/><path stroke="#000000" stroke-width="1.0" stroke-linejoin="round" stroke-linecap="butt" d="m495.87402 1081.7743l0 -582.3622l-495.87402 582.3622z" fill-rule="evenodd"/><path fill="#bb5f00" d="m1424.1207 1081.7743l0 -589.0709l495.87402 589.0709z" fill-rule="evenodd"/><path stroke="#000000" stroke-width="1.0" stroke-linejoin="round" stroke-linecap="butt" d="m1424.1207 1081.7743l0 -589.0709l495.87402 589.0709z" fill-rule="evenodd"/><path fill="#ffffff" d="m663.4791 788.97565l21.554016 0l0 -25.083801l20.290161 0l0 25.083801l21.554016 0l0 20.290161l-21.554016 0l0 25.083862l-20.290161 0l0 -25.083862l-21.554016 0z" fill-rule="evenodd"/><path stroke="#000000" stroke-width="1.0" stroke-linejoin="round" stroke-linecap="butt" d="m663.4791 788.97565l21.554016 0l0 -25.083801l20.290161 0l0 25.083801l21.554016 0l0 20.290161l-21.554016 0l0 25.083862l-20.290161 0l0 -25.083862l-21.554016 0z" fill-rule="evenodd"/><path fill="#ffffff" d="m833.8828 783.43085l68.559814 0l0 31.37976l-68.559814 0z" fill-rule="evenodd"/><path stroke="#000000" stroke-width="1.0" stroke-linejoin="round" stroke-linecap="butt" d="m833.8828 783.43085l68.559814 0l0 31.37976l-68.559814 0z" fill-rule="evenodd"/><path fill="#ffffff" d="m1012.2891 779.73553l16.260193 -14.733093l16.109253 17.778992l16.109375 -17.778992l16.260132 14.733093l-17.564575 19.385193l17.564575 19.385193l-16.260132 14.733093l-16.109375 -17.778992l-16.109253 17.778992l-16.260193 -14.733093l17.564636 -19.385193z" fill-rule="evenodd"/><path stroke="#000000" stroke-width="1.0" stroke-linejoin="round" stroke-linecap="butt" d="m1012.2891 779.73553l16.260193 -14.733093l16.109253 17.778992l16.109375 -17.778992l16.260132 14.733093l-17.564575 19.385193l17.564575 19.385193l-16.260132 14.733093l-16.109375 -17.778992l-16.109253 17.778992l-16.260193 -14.733093l17.564636 -19.385193z" fill-rule="evenodd"/><path fill="#ffffff" d="m1205.4121 759.7795l0 0c6.687134 0 12.108154 5.4210205 12.108154 12.108154c0 6.687195 -5.4210205 12.108154 -12.108154 12.108154c-6.687134 0 -12.108154 -5.4209595 -12.108154 -12.108154c0 -6.687134 5.4210205 -12.108154 12.108154 -12.108154zm0 78.682495c-6.687134 0 -12.108154 -5.4210205 -12.108154 -12.108154c0 -6.687134 5.4210205 -12.108154 12.108154 -12.108154c6.687134 0 12.108154 5.4210205 12.108154 12.108154c0 6.687134 -5.4210205 12.108154 -12.108154 12.108154zm-44.163452 -51.4494l88.326904 0l0 24.216309l-88.326904 0z" fill-rule="evenodd"/><path stroke="#000000" stroke-width="1.0" stroke-linejoin="round" stroke-linecap="butt" d="m1205.4121 759.7795l0 0c6.687134 0 12.108154 5.4210205 12.108154 12.108154c0 6.687195 -5.4210205 12.108154 -12.108154 12.108154c-6.687134 0 -12.108154 -5.4209595 -12.108154 -12.108154c0 -6.687134 5.4210205 -12.108154 12.108154 -12.108154zm0 78.682495c-6.687134 0 -12.108154 -5.4210205 -12.108154 -12.108154c0 -6.687134 5.4210205 -12.108154 12.108154 -12.108154c6.687134 0 12.108154 5.4210205 12.108154 12.108154c0 6.687134 -5.4210205 12.108154 -12.108154 12.108154zm-44.163452 -51.4494l88.326904 0l0 24.216309l-88.326904 0z" fill-rule="evenodd"/></g></svg>