<svg version="1.1" viewBox="0.0 0.0 1920.0 1080.0" fill="none" stroke="none" stroke-linecap="square" stroke-miterlimit="10" xmlns:xlink="http://www.w3.org/1999/xlink" xmlns="http://www.w3.org/2000/svg"><clipPath id="p.0"><path d="m0 0l1920.0 0l0 1080.0l-1920.0 0l0 -1080.0z" clip-rule="nonzero"/></clipPath><g clip-path="url(#p.0)"><path fill="#fcf5ef" d="m0 0l1920.0 0l0 1080.0l-1920.0 0z" fill-rule="evenodd"/><defs><linearGradient id="p.1" gradientUnits="userSpaceOnUse" gradientTransform="matrix(14.248614044252777 0.0 0.0 14.248614044252777 0.0 0.0)" spreadMethod="pad" x1="12.811517092246389" y1="14.39815751433229" x2="15.28545486877437" y2="0.3659576133921196"><stop offset="0.0" stop-color="#f2f2f2"/><stop offset="1.0" stop-color="#a6a6a6"/></linearGradient></defs><path fill="url(#p.1)" d="m0 0l188.22047 0l0 172.97008l-188.22047 0z" fill-rule="evenodd"/><defs><linearGradient id="p.2" gradientUnits="userSpaceOnUse" gradientTransform="matrix(14.248614180258462 0.0 0.0 14.248614180258462 0.0 0.0)" spreadMethod="pad" x1="39.6900331502868" y1="14.398157376899187" x2="42.16397234230541" y2="0.36595758741297296"><stop offset="0.0" stop-color="#f2f2f2"/><stop offset="1.0" stop-color="#a6a6a6"/></linearGradient></defs><path fill="url(#p.2)" d="m382.98163 0l188.22046 0l0 172.97008l-188.22046 0z" fill-rule="evenodd"/><defs><linearGradient id="p.3" gradientUnits="userSpaceOnUse" gradientTransform="matrix(14.248614018969594 0.0 0.0 14.248614018969594 0.0 0.0)" spreadMethod="pad" x1="66.56855152325093" y1="14.398157539880827" x2="69.0424878650639" y2="0.36595741166736856"><stop offset="0.0" stop-color="#f2f2f2"/><stop offset="1.0" stop-color="#a6a6a6"/></linearGradient></defs><path fill="url(#p.3)" d="m765.96326 0l188.22046 0l0 172.97008l-188.22046 0z" fill-rule="evenodd"/><defs><linearGradient id="p.4" gradientUnits="userSpaceOnUse" gradientTransform="matrix(14.248613609296594 0.0 0.0 14.248613609296594 0.0 0.0)" spreadMethod="pad" x1="93.4470721337086" y1="14.398157953853483" x2="95.92100854665165" y2="0.36595825417180283"><stop offset="0.0" stop-color="#f2f2f2"/><stop offset="1.0" stop-color="#a6a6a6"/></linearGradient></defs><path fill="url(#p.4)" d="m1148.9448 0l188.22058 0l0 172.97008l-188.22058 0z" fill-rule="evenodd"/><defs><linearGradient id="p.5" gradientUnits="userSpaceOnUse" gradientTransform="matrix(14.248615394894681 0.0 0.0 14.248615394894681 0.0 0.0)" spreadMethod="pad" x1="120.32556999490434" y1="14.398156149515126" x2="122.79951761065792" y2="0.36595661180412703"><stop offset="0.0" stop-color="#f2f2f2"/><stop offset="1.0" stop-color="#a6a6a6"/></linearGradient></defs><path fill="url(#p.5)" d="m1531.9265 0l188.22046 0l0 172.97008l-188.22046 0z" fill-rule="evenodd"/><defs><linearGradient id="p.6" gradientUnits="userSpaceOnUse" gradientTransform="matrix(14.288473143860067 0.0 0.0 14.288473143860067 0.0 0.0)" spreadMethod="pad" x1="26.393337136039456" y1="26.541957958653974" x2="28.874194974856675" y2="12.470504260958434"><stop offset="0.0" stop-color="#f2f2f2"/><stop offset="1.0" stop-color="#a6a6a6"/></linearGradient></defs><path fill="url(#p.6)" d="m188.22047 172.97008l194.77165 0l0 172.97008l-194.77165 0z" fill-rule="evenodd"/><defs><linearGradient id="p.7" gradientUnits="userSpaceOnUse" gradientTransform="matrix(14.288473143860067 0.0 0.0 14.288473143860067 0.0 0.0)" spreadMethod="pad" x1="53.1968747457357" y1="26.541957958653974" x2="55.67773258455291" y2="12.470504260958434"><stop offset="0.0" stop-color="#f2f2f2"/><stop offset="1.0" stop-color="#a6a6a6"/></linearGradient></defs><path fill="url(#p.7)" d="m571.2021 172.97008l194.77167 0l0 172.97008l-194.77167 0z" fill-rule="evenodd"/><defs><linearGradient id="p.8" gradientUnits="userSpaceOnUse" gradientTransform="matrix(14.288473143860067 0.0 0.0 14.288473143860067 0.0 0.0)" spreadMethod="pad" x1="80.00005071267398" y1="26.541957958653974" x2="82.4809085514912" y2="12.470504260958434"><stop offset="0.0" stop-color="#f2f2f2"/><stop offset="1.0" stop-color="#a6a6a6"/></linearGradient></defs><path fill="url(#p.8)" d="m954.17847 172.97008l194.7716 0l0 172.97008l-194.7716 0z" fill-rule="evenodd"/><defs><linearGradient id="p.9" gradientUnits="userSpaceOnUse" gradientTransform="matrix(14.288473850506822 0.0 0.0 14.288473850506822 0.0 0.0)" spreadMethod="pad" x1="106.80320417649898" y1="26.541956646002347" x2="109.2840618926236" y2="12.470502209130434"><stop offset="0.0" stop-color="#f2f2f2"/><stop offset="1.0" stop-color="#a6a6a6"/></linearGradient></defs><path fill="url(#p.9)" d="m1337.1549 172.97008l194.7716 0l0 172.97008l-194.7716 0z" fill-rule="evenodd"/><defs><linearGradient id="p.10" gradientUnits="userSpaceOnUse" gradientTransform="matrix(14.319440171887727 0.0 0.0 14.319440171887727 0.0 0.0)" spreadMethod="pad" x1="133.66303429880014" y1="26.545486853112152" x2="136.14927269690764" y2="12.443537148761065"><stop offset="0.0" stop-color="#f2f2f2"/><stop offset="1.0" stop-color="#a6a6a6"/></linearGradient></defs><path fill="url(#p.10)" d="m1720.1312 172.97008l199.87402 0l0 172.97008l-199.87402 0z" fill-rule="evenodd"/><defs><linearGradient id="p.11" gradientUnits="userSpaceOnUse" gradientTransform="matrix(14.248613557074085 0.0 0.0 14.248613557074085 0.0 0.0)" spreadMethod="pad" x1="12.811516091183995" y1="38.677023055263426" x2="15.285453952299138" y2="24.644823663928637"><stop offset="0.0" stop-color="#f2f2f2"/><stop offset="1.0" stop-color="#a6a6a6"/></linearGradient></defs><path fill="url(#p.11)" d="m0 345.94016l188.22047 0l0 172.97006l-188.22047 0z" fill-rule="evenodd"/><defs><linearGradient id="p.12" gradientUnits="userSpaceOnUse" gradientTransform="matrix(14.248615099254568 0.0 0.0 14.248615099254568 0.0 0.0)" spreadMethod="pad" x1="39.69003059038988" y1="38.67701886910571" x2="42.16396962284628" y2="24.644818118318472"><stop offset="0.0" stop-color="#f2f2f2"/><stop offset="1.0" stop-color="#a6a6a6"/></linearGradient></defs><path fill="url(#p.12)" d="m382.98163 345.94016l188.22046 0l0 172.97006l-188.22046 0z" fill-rule="evenodd"/><defs><linearGradient id="p.13" gradientUnits="userSpaceOnUse" gradientTransform="matrix(14.2486148493878 0.0 0.0 14.2486148493878 0.0 0.0)" spreadMethod="pad" x1="66.568547643594" y1="38.677019547354206" x2="69.04248384122442" y2="24.644818550495287"><stop offset="0.0" stop-color="#f2f2f2"/><stop offset="1.0" stop-color="#a6a6a6"/></linearGradient></defs><path fill="url(#p.13)" d="m765.96326 345.94016l188.22046 0l0 172.97006l-188.22046 0z" fill-rule="evenodd"/><defs><linearGradient id="p.14" gradientUnits="userSpaceOnUse" gradientTransform="matrix(14.2486148493878 0.0 0.0 14.2486148493878 0.0 0.0)" spreadMethod="pad" x1="93.44705824436623" y1="38.677019547354206" x2="95.92099444199665" y2="24.644818550495287"><stop offset="0.0" stop-color="#f2f2f2"/><stop offset="1.0" stop-color="#a6a6a6"/></linearGradient></defs><path fill="url(#p.14)" d="m1148.9448 345.94016l188.22058 0l0 172.97006l-188.22058 0z" fill-rule="evenodd"/><defs><linearGradient id="p.15" gradientUnits="userSpaceOnUse" gradientTransform="matrix(14.2486134321407 0.0 0.0 14.2486134321407 0.0 0.0)" spreadMethod="pad" x1="120.32559808265393" y1="38.67702339438775" x2="122.79953452635593" y2="24.644823880017118"><stop offset="0.0" stop-color="#f2f2f2"/><stop offset="1.0" stop-color="#a6a6a6"/></linearGradient></defs><path fill="url(#p.15)" d="m1531.9265 345.94016l188.22046 0l0 172.97006l-188.22046 0z" fill-rule="evenodd"/><defs><linearGradient id="p.16" gradientUnits="userSpaceOnUse" gradientTransform="matrix(14.288473143860067 0.0 0.0 14.288473143860067 0.0 0.0)" spreadMethod="pad" x1="26.393340006220075" y1="50.75309390015025" x2="28.874197845037294" y2="36.68164020245471"><stop offset="0.0" stop-color="#f2f2f2"/><stop offset="1.0" stop-color="#a6a6a6"/></linearGradient></defs><path fill="url(#p.16)" d="m188.22047 518.9102l194.77165 0l0 172.9701l-194.77165 0z" fill-rule="evenodd"/><defs><linearGradient id="p.17" gradientUnits="userSpaceOnUse" gradientTransform="matrix(14.288473143860067 0.0 0.0 14.288473143860067 0.0 0.0)" spreadMethod="pad" x1="53.1968747457357" y1="50.75309390015025" x2="55.67773258455291" y2="36.68164020245471"><stop offset="0.0" stop-color="#f2f2f2"/><stop offset="1.0" stop-color="#a6a6a6"/></linearGradient></defs><path fill="url(#p.17)" d="m571.2021 518.9102l194.77167 0l0 172.9701l-194.77167 0z" fill-rule="evenodd"/><defs><linearGradient id="p.18" gradientUnits="userSpaceOnUse" gradientTransform="matrix(14.288473642200085 0.0 0.0 14.288473642200085 0.0 0.0)" spreadMethod="pad" x1="80.000042182146" y1="50.75309213003131" x2="82.48090567479923" y2="36.681638923106775"><stop offset="0.0" stop-color="#f2f2f2"/><stop offset="1.0" stop-color="#a6a6a6"/></linearGradient></defs><path fill="url(#p.18)" d="m954.17847 518.9102l194.7716 0l0 172.9701l-194.7716 0z" fill-rule="evenodd"/><defs><linearGradient id="p.19" gradientUnits="userSpaceOnUse" gradientTransform="matrix(14.288473143860067 0.0 0.0 14.288473143860067 0.0 0.0)" spreadMethod="pad" x1="106.80322093925103" y1="50.75309390015025" x2="109.28407877806825" y2="36.68164020245471"><stop offset="0.0" stop-color="#f2f2f2"/><stop offset="1.0" stop-color="#a6a6a6"/></linearGradient></defs><path fill="url(#p.19)" d="m1337.1549 518.9102l194.7716 0l0 172.9701l-194.7716 0z" fill-rule="evenodd"/><defs><linearGradient id="p.20" gradientUnits="userSpaceOnUse" gradientTransform="matrix(14.319441292720793 0.0 0.0 14.319441292720793 0.0 0.0)" spreadMethod="pad" x1="133.66302383652402" y1="50.704260150029256" x2="136.14925058413138" y2="36.602307253527336"><stop offset="0.0" stop-color="#f2f2f2"/><stop offset="1.0" stop-color="#a6a6a6"/></linearGradient></defs><path fill="url(#p.20)" d="m1720.1312 518.9102l199.87402 0l0 172.9701l-199.87402 0z" fill-rule="evenodd"/><defs><linearGradient id="p.21" gradientUnits="userSpaceOnUse" gradientTransform="matrix(20.189823625307962 0.0 0.0 20.189823625307962 0.0 0.0)" spreadMethod="pad" x1="1.2391005966633542E-9" y1="33.30130130961596" x2="-7.30857182499469E-5" y2="53.491124934791635"><stop offset="0.0" stop-color="#434343"/><stop offset="1.4E-45" stop-color="#999999"/><stop offset="0.08" stop-color="#868686"/><stop offset="0.2" stop-color="#656565"/><stop offset="0.4" stop-color="#000000"/><stop offset="0.99999994" stop-color="#3a3a3a"/><stop offset="1.0" stop-color="#737373"/></linearGradient></defs><path fill="url(#p.21)" d="m0 672.3543l1920.0 0l0 407.622l-1920.0 0z" fill-rule="evenodd"/></g></svg>