<svg version="1.1" viewBox="0.0 0.0 960.0 540.0" fill="none" stroke="none" stroke-linecap="square" stroke-miterlimit="10" xmlns:xlink="http://www.w3.org/1999/xlink" xmlns="http://www.w3.org/2000/svg"><clipPath id="p.0"><path d="m0 0l960.0 0l0 540.0l-960.0 0l0 -540.0z" clip-rule="nonzero"/></clipPath><g clip-path="url(#p.0)"><path fill="#fff2cc" d="m0 0l960.0 0l0 540.0l-960.0 0z" fill-rule="evenodd"/><defs><linearGradient id="p.1" gradientUnits="userSpaceOnUse" gradientTransform="matrix(13.382454934233488 0.0 0.0 13.382454934233488 0.0 0.0)" spreadMethod="pad" x1="9.436625331829487E-10" y1="26.966532347382138" x2="-4.84434104419912E-5" y2="40.34898728152794"><stop offset="0.0" stop-color="#696969"/><stop offset="1.0" stop-color="#1d1d1d"/></linearGradient></defs><path fill="url(#p.1)" d="m0 360.8819l960.8819 0l0 179.08661l-960.8819 0z" fill-rule="evenodd"/><path fill="#8b776a" d="m251.02362 172.94489l457.95276 0l0 187.93701l-457.95276 0z" fill-rule="evenodd"/><path stroke="#000000" stroke-width="1.0" stroke-linejoin="round" stroke-linecap="butt" d="m251.02362 172.94489l457.95276 0l0 187.93701l-457.95276 0z" fill-rule="evenodd"/><path fill="#5d5047" d="m257.44968 179.37094l139.36838 0l0 78.01404l-139.36838 0z" fill-rule="evenodd"/><path fill="#7d736b" d="m251.02362 172.94489l152.22046 0l-6.4260254 6.426056l-139.36838 0z" fill-rule="evenodd"/><path fill="#4a3f38" d="m251.02362 263.81104l6.426056 -6.426056l139.36838 0l6.4260254 6.426056z" fill-rule="evenodd"/><path fill="#9d9690" d="m251.02362 172.94489l6.426056 6.426056l0 78.01404l-6.426056 6.426056z" fill-rule="evenodd"/><path fill="#372f2a" d="m403.24408 172.94489l0 90.86615l-6.4260254 -6.426056l0 -78.01404z" fill-rule="evenodd"/><path fill="#000000" fill-opacity="0.0" d="m251.02362 172.94489l152.22046 0l0 90.86615l-152.22046 0zm6.426056 6.426056l139.36838 0l0 78.01404l-139.36838 0zm-6.426056 -6.426056l6.426056 6.426056m-6.426056 84.440094l6.426056 -6.426056m145.7944 -84.440094l-6.4260254 6.426056m6.4260254 84.440094l-6.4260254 -6.426056" fill-rule="evenodd"/><path stroke="#000000" stroke-width="1.0" stroke-linejoin="round" stroke-linecap="butt" d="m251.02362 172.94489l152.22046 0l0 90.86615l-152.22046 0zm6.426056 6.426056l139.36838 0l0 78.01404l-139.36838 0zm-6.426056 -6.426056l6.426056 6.426056m-6.426056 84.440094l6.426056 -6.426056m145.7944 -84.440094l-6.4260254 6.426056m6.4260254 84.440094l-6.4260254 -6.426056" fill-rule="evenodd"/><path fill="#5d5047" d="m410.31583 179.37094l139.36838 0l0 78.01404l-139.36838 0z" fill-rule="evenodd"/><path fill="#7d736b" d="m403.88977 172.94489l152.22046 0l-6.4260254 6.426056l-139.36838 0z" fill-rule="evenodd"/><path fill="#4a3f38" d="m403.88977 263.81104l6.426056 -6.426056l139.36838 0l6.4260254 6.426056z" fill-rule="evenodd"/><path fill="#9d9690" d="m403.88977 172.94489l6.426056 6.426056l0 78.01404l-6.426056 6.426056z" fill-rule="evenodd"/><path fill="#372f2a" d="m556.1102 172.94489l0 90.86615l-6.4260254 -6.426056l0 -78.01404z" fill-rule="evenodd"/><path fill="#000000" fill-opacity="0.0" d="m403.88977 172.94489l152.22046 0l0 90.86615l-152.22046 0zm6.426056 6.426056l139.36838 0l0 78.01404l-139.36838 0zm-6.426056 -6.426056l6.426056 6.426056m-6.426056 84.440094l6.426056 -6.426056m145.7944 -84.440094l-6.4260254 6.426056m6.4260254 84.440094l-6.4260254 -6.426056" fill-rule="evenodd"/><path stroke="#000000" stroke-width="1.0" stroke-linejoin="round" stroke-linecap="butt" d="m403.88977 172.94489l152.22046 0l0 90.86615l-152.22046 0zm6.426056 6.426056l139.36838 0l0 78.01404l-139.36838 0zm-6.426056 -6.426056l6.426056 6.426056m-6.426056 84.440094l6.426056 -6.426056m145.7944 -84.440094l-6.4260254 6.426056m6.4260254 84.440094l-6.4260254 -6.426056" fill-rule="evenodd"/><path fill="#5d5047" d="m563.18195 179.37094l139.36841 0l0 78.01404l-139.36841 0z" fill-rule="evenodd"/><path fill="#7d736b" d="m556.7559 172.94489l152.22046 0l-6.4260254 6.426056l-139.36841 0z" fill-rule="evenodd"/><path fill="#4a3f38" d="m556.7559 263.81104l6.4260254 -6.426056l139.36841 0l6.4260254 6.426056z" fill-rule="evenodd"/><path fill="#9d9690" d="m556.7559 172.94489l6.4260254 6.426056l0 78.01404l-6.4260254 6.426056z" fill-rule="evenodd"/><path fill="#372f2a" d="m708.9764 172.94489l0 90.86615l-6.4260254 -6.426056l0 -78.01404z" fill-rule="evenodd"/><path fill="#000000" fill-opacity="0.0" d="m556.7559 172.94489l152.22046 0l0 90.86615l-152.22046 0zm6.4260254 6.426056l139.36841 0l0 78.01404l-139.36841 0zm-6.4260254 -6.426056l6.4260254 6.426056m-6.4260254 84.440094l6.4260254 -6.426056m145.79443 -84.440094l-6.4260254 6.426056m6.4260254 84.440094l-6.4260254 -6.426056" fill-rule="evenodd"/><path stroke="#000000" stroke-width="1.0" stroke-linejoin="round" stroke-linecap="butt" d="m556.7559 172.94489l152.22046 0l0 90.86615l-152.22046 0zm6.4260254 6.426056l139.36841 0l0 78.01404l-139.36841 0zm-6.4260254 -6.426056l6.4260254 6.426056m-6.4260254 84.440094l6.4260254 -6.426056m145.79443 -84.440094l-6.4260254 6.426056m6.4260254 84.440094l-6.4260254 -6.426056" fill-rule="evenodd"/><path fill="#5d5047" d="m257.8885 270.67587l138.49075 0l0 83.341156l-138.49075 0z" fill-rule="evenodd"/><path fill="#7d736b" d="m251.02362 263.81104l152.22046 0l-6.8648376 6.8648376l-138.49075 0z" fill-rule="evenodd"/><path fill="#4a3f38" d="m251.02362 360.8819l6.864868 -6.864868l138.49075 0l6.8648376 6.864868z" fill-rule="evenodd"/><path fill="#9d9690" d="m251.02362 263.81104l6.864868 6.8648376l0 83.341156l-6.864868 6.864868z" fill-rule="evenodd"/><path fill="#372f2a" d="m403.24408 263.81104l0 97.07086l-6.8648376 -6.864868l0 -83.341156z" fill-rule="evenodd"/><path fill="#000000" fill-opacity="0.0" d="m251.02362 263.81104l152.22046 0l0 97.07086l-152.22046 0zm6.864868 6.8648376l138.49075 0l0 83.341156l-138.49075 0zm-6.864868 -6.8648376l6.864868 6.8648376m-6.864868 90.206024l6.864868 -6.864868m145.35559 -90.20599l-6.8648376 6.8648376m6.8648376 90.206024l-6.8648376 -6.864868" fill-rule="evenodd"/><path stroke="#000000" stroke-width="1.0" stroke-linejoin="round" stroke-linecap="butt" d="m251.02362 263.81104l152.22046 0l0 97.07086l-152.22046 0zm6.864868 6.8648376l138.49075 0l0 83.341156l-138.49075 0zm-6.864868 -6.8648376l6.864868 6.8648376m-6.864868 90.206024l6.864868 -6.864868m145.35559 -90.20599l-6.8648376 6.8648376m6.8648376 90.206024l-6.8648376 -6.864868" fill-rule="evenodd"/><path fill="#5d5047" d="m410.7546 270.67587l138.49075 0l0 83.341156l-138.49075 0z" fill-rule="evenodd"/><path fill="#7d736b" d="m403.88977 263.81104l152.22046 0l-6.864868 6.8648376l-138.49075 0z" fill-rule="evenodd"/><path fill="#4a3f38" d="m403.88977 360.8819l6.8648376 -6.864868l138.49075 0l6.864868 6.864868z" fill-rule="evenodd"/><path fill="#9d9690" d="m403.88977 263.81104l6.8648376 6.8648376l0 83.341156l-6.8648376 6.864868z" fill-rule="evenodd"/><path fill="#372f2a" d="m556.1102 263.81104l0 97.07086l-6.864868 -6.864868l0 -83.341156z" fill-rule="evenodd"/><path fill="#000000" fill-opacity="0.0" d="m403.88977 263.81104l152.22046 0l0 97.07086l-152.22046 0zm6.8648376 6.8648376l138.49075 0l0 83.341156l-138.49075 0zm-6.8648376 -6.8648376l6.8648376 6.8648376m-6.8648376 90.206024l6.8648376 -6.864868m145.35562 -90.20599l-6.864868 6.8648376m6.864868 90.206024l-6.864868 -6.864868" fill-rule="evenodd"/><path stroke="#000000" stroke-width="1.0" stroke-linejoin="round" stroke-linecap="butt" d="m403.88977 263.81104l152.22046 0l0 97.07086l-152.22046 0zm6.8648376 6.8648376l138.49075 0l0 83.341156l-138.49075 0zm-6.8648376 -6.8648376l6.8648376 6.8648376m-6.8648376 90.206024l6.8648376 -6.864868m145.35562 -90.20599l-6.864868 6.8648376m6.864868 90.206024l-6.864868 -6.864868" fill-rule="evenodd"/><path fill="#5d5047" d="m563.6207 270.67587l138.49078 0l0 83.341156l-138.49078 0z" fill-rule="evenodd"/><path fill="#7d736b" d="m556.7559 263.81104l152.22046 0l-6.864868 6.8648376l-138.49078 0z" fill-rule="evenodd"/><path fill="#4a3f38" d="m556.7559 360.8819l6.864807 -6.864868l138.49078 0l6.864868 6.864868z" fill-rule="evenodd"/><path fill="#9d9690" d="m556.7559 263.81104l6.864807 6.8648376l0 83.341156l-6.864807 6.864868z" fill-rule="evenodd"/><path fill="#372f2a" d="m708.9764 263.81104l0 97.07086l-6.864868 -6.864868l0 -83.341156z" fill-rule="evenodd"/><path fill="#000000" fill-opacity="0.0" d="m556.7559 263.81104l152.22046 0l0 97.07086l-152.22046 0zm6.864807 6.8648376l138.49078 0l0 83.341156l-138.49078 0zm-6.864807 -6.8648376l6.864807 6.8648376m-6.864807 90.206024l6.864807 -6.864868m145.35565 -90.20599l-6.864868 6.8648376m6.864868 90.206024l-6.864868 -6.864868" fill-rule="evenodd"/><path stroke="#000000" stroke-width="1.0" stroke-linejoin="round" stroke-linecap="butt" d="m556.7559 263.81104l152.22046 0l0 97.07086l-152.22046 0zm6.864807 6.8648376l138.49078 0l0 83.341156l-138.49078 0zm-6.864807 -6.8648376l6.864807 6.8648376m-6.864807 90.206024l6.864807 -6.864868m145.35565 -90.20599l-6.864868 6.8648376m6.864868 90.206024l-6.864868 -6.864868" fill-rule="evenodd"/><path fill="#8b776a" d="m251.02362 172.94226l60.585663 -57.354332l336.7814 0l60.585693 57.354332z" fill-rule="evenodd"/><path stroke="#000000" stroke-width="1.0" stroke-linejoin="round" stroke-linecap="butt" d="m251.02362 172.94226l60.585663 -57.354332l336.7814 0l60.585693 57.354332z" fill-rule="evenodd"/><path fill="#ffffff" d="m426.61417 144.26509l0 0c0 -13.64621 23.901642 -24.708664 53.385834 -24.708664l0 0c29.484192 0 53.385803 11.062454 53.385803 24.708664l0 0c0 13.646225 -23.901611 24.708664 -53.385803 24.708664l0 0c-29.484192 0 -53.385834 -11.062439 -53.385834 -24.708664z" fill-rule="evenodd"/><path stroke="#000000" stroke-width="2.0" stroke-linejoin="round" stroke-linecap="butt" d="m426.61417 144.26509l0 0c0 -13.64621 23.901642 -24.708664 53.385834 -24.708664l0 0c29.484192 0 53.385803 11.062454 53.385803 24.708664l0 0c0 13.646225 -23.901611 24.708664 -53.385803 24.708664l0 0c-29.484192 0 -53.385834 -11.062439 -53.385834 -24.708664z" fill-rule="evenodd"/><path fill="#f3f3f3" d="m416.47244 106.10244l0 0c0 -2.0700226 1.6780701 -3.748108 3.748108 -3.748108l120.440765 0c0.9940796 0 1.9474487 0.39488983 2.6503296 1.0977936c0.7029419 0.70290375 1.0977783 1.65625 1.0977783 2.6503143l0 14.991974c0 2.0700226 -1.6780396 3.748108 -3.748108 3.748108l-120.440765 0c-2.0700378 0 -3.748108 -1.6780853 -3.748108 -3.748108z" fill-rule="evenodd"/><path stroke="#000000" stroke-width="1.0" stroke-linejoin="round" stroke-linecap="butt" d="m416.47244 106.10244l0 0c0 -2.0700226 1.6780701 -3.748108 3.748108 -3.748108l120.440765 0c0.9940796 0 1.9474487 0.39488983 2.6503296 1.0977936c0.7029419 0.70290375 1.0977783 1.65625 1.0977783 2.6503143l0 14.991974c0 2.0700226 -1.6780396 3.748108 -3.748108 3.748108l-120.440765 0c-2.0700378 0 -3.748108 -1.6780853 -3.748108 -3.748108z" fill-rule="evenodd"/><path fill="#f3f3f3" d="m450.44095 42.12837l0 0c0 -5.724205 4.640381 -10.36459 10.3645935 -10.36459l38.388916 0l0 0c2.7488708 0 5.385132 1.09198 7.328888 3.035717c1.9437256 1.943737 3.0357056 4.5800133 3.0357056 7.3288727l0 49.853504c0 5.7241974 -4.640381 10.364586 -10.3645935 10.364586l-38.388916 0c-5.7242126 0 -10.3645935 -4.6403885 -10.3645935 -10.364586z" fill-rule="evenodd"/><path stroke="#000000" stroke-width="1.0" stroke-linejoin="round" stroke-linecap="butt" d="m450.44095 42.12837l0 0c0 -5.724205 4.640381 -10.36459 10.3645935 -10.36459l38.388916 0l0 0c2.7488708 0 5.385132 1.09198 7.328888 3.035717c1.9437256 1.943737 3.0357056 4.5800133 3.0357056 7.3288727l0 49.853504c0 5.7241974 -4.640381 10.364586 -10.3645935 10.364586l-38.388916 0c-5.7242126 0 -10.3645935 -4.6403885 -10.3645935 -10.364586z" fill-rule="evenodd"/><defs><linearGradient id="p.2" gradientUnits="userSpaceOnUse" gradientTransform="matrix(-8.350640574378314 0.0 0.0 -8.350640574378314 0.0 0.0)" spreadMethod="pad" x1="-59.250571298162725" y1="0.0012652914705910347" x2="-52.018647159040306" y2="-4.173955810271428"><stop offset="0.0" stop-color="#f2f2f2"/><stop offset="0.74" stop-color="#cccccc"/><stop offset="1.0" stop-color="#a6a6a6"/></linearGradient></defs><path fill="url(#p.2)" d="m509.55905 53.391075l0 0c0 -5.118416 -13.234039 -9.267715 -29.559052 -9.267715c-16.325012 0 -29.559052 4.1492996 -29.559052 9.267715l0 -18.53543c0 -5.1184196 13.234039 -9.267717 29.559052 -9.267717c16.325012 0 29.559052 4.1492977 29.559052 9.267717z" fill-rule="evenodd"/><defs><linearGradient id="p.3" gradientUnits="userSpaceOnUse" gradientTransform="matrix(-8.350640574378314 0.0 0.0 -8.350640574378314 0.0 0.0)" spreadMethod="pad" x1="-59.250571298162725" y1="0.0012652914705910347" x2="-52.018647159040306" y2="-4.173955810271428"><stop offset="0.0" stop-color="#f2f2f2"/><stop offset="0.74" stop-color="#cccccc"/><stop offset="1.0" stop-color="#a6a6a6"/></linearGradient></defs><path fill="url(#p.3)" d="m509.55905 53.391075l0 0c0 5.1184196 -13.234039 9.267719 -29.559052 9.267719c-16.325012 0 -29.559052 -4.1492996 -29.559052 -9.267719l0 0c0 -5.118416 13.234039 -9.267715 29.559052 -9.267715c16.325012 0 29.559052 4.1492996 29.559052 9.267715z" fill-rule="evenodd"/><path fill="#000000" fill-opacity="0.0" d="m450.44095 53.391075l0 0c0 -5.118416 13.234039 -9.267715 29.559052 -9.267715c16.325012 0 29.559052 4.1492996 29.559052 9.267715l0 0c0 5.1184196 -13.234039 9.267719 -29.559052 9.267719c-16.325012 0 -29.559052 -4.1492996 -29.559052 -9.267719l0 -18.53543c0 -5.1184196 13.234039 -9.267717 29.559052 -9.267717c16.325012 0 29.559052 4.1492977 29.559052 9.267717l0 18.53543" fill-rule="evenodd"/><path fill="#ffffff" fill-opacity="0.4" d="m509.55905 53.391075l0 0c0 5.1184196 -13.234039 9.267719 -29.559052 9.267719c-16.325012 0 -29.559052 -4.1492996 -29.559052 -9.267719l0 0c0 -5.118416 13.234039 -9.267715 29.559052 -9.267715c16.325012 0 29.559052 4.1492996 29.559052 9.267715z" fill-rule="evenodd"/><path stroke="#000000" stroke-width="1.0" stroke-linejoin="round" stroke-linecap="butt" d="m450.44095 53.391075l0 0c0 -5.118416 13.234039 -9.267715 29.559052 -9.267715c16.325012 0 29.559052 4.1492996 29.559052 9.267715l0 0c0 5.1184196 -13.234039 9.267719 -29.559052 9.267719c-16.325012 0 -29.559052 -4.1492996 -29.559052 -9.267719l0 -18.53543c0 -5.1184196 13.234039 -9.267717 29.559052 -9.267717c16.325012 0 29.559052 4.1492977 29.559052 9.267717l0 18.53543" fill-rule="evenodd"/><path fill="#cfe2f3" d="m426.61417 113.59843l2.4483643 -1.3226166l-1.7434998 -2.1365738l2.7805176 -0.307312l-0.7732544 -2.625328l2.6893616 0.7548523l0.31478882 -2.7143173l2.1886902 1.7020035l1.3548889 -2.3900833l1.3548584 2.3900833l2.1886902 -1.7020035l0.31481934 2.7143173l2.6893616 -0.7548523l-0.7732849 2.625328l2.7805176 0.307312l-1.7434998 2.1365738l2.4483643 1.3226166l-2.4483643 1.3226166l1.7434998 2.1365662l-2.7805176 0.30731964l0.7732849 2.625328l-2.6893616 -0.7548599l-0.31481934 2.7143173l-2.1886902 -1.7019958l-1.3548584 2.3900757l-1.3548889 -2.3900757l-2.1886902 1.7019958l-0.31478882 -2.7143173l-2.6893616 0.7548599l0.7732544 -2.625328l-2.7805176 -0.30731964l1.7434998 -2.1365662z" fill-rule="evenodd"/><path stroke="#000000" stroke-width="1.0" stroke-linejoin="round" stroke-linecap="butt" d="m426.61417 113.59843l2.4483643 -1.3226166l-1.7434998 -2.1365738l2.7805176 -0.307312l-0.7732544 -2.625328l2.6893616 0.7548523l0.31478882 -2.7143173l2.1886902 1.7020035l1.3548889 -2.3900833l1.3548584 2.3900833l2.1886902 -1.7020035l0.31481934 2.7143173l2.6893616 -0.7548523l-0.7732849 2.625328l2.7805176 0.307312l-1.7434998 2.1365738l2.4483643 1.3226166l-2.4483643 1.3226166l1.7434998 2.1365662l-2.7805176 0.30731964l0.7732849 2.625328l-2.6893616 -0.7548599l-0.31481934 2.7143173l-2.1886902 -1.7019958l-1.3548584 2.3900757l-1.3548889 -2.3900757l-2.1886902 1.7019958l-0.31478882 -2.7143173l-2.6893616 0.7548599l0.7732544 -2.625328l-2.7805176 -0.30731964l1.7434998 -2.1365662z" fill-rule="evenodd"/><path fill="#ea9999" d="m514.86615 113.59843l2.4483643 -1.3226166l-1.7435303 -2.1365738l2.7805176 -0.307312l-0.7732544 -2.625328l2.689392 0.7548523l0.3147583 -2.7143173l2.1887207 1.7020035l1.3548584 -2.3900833l1.3548584 2.3900833l2.1887207 -1.7020035l0.31481934 2.7143173l2.689331 -0.7548523l-0.7732544 2.625328l2.7805176 0.307312l-1.7435303 2.1365738l2.4483643 1.3226166l-2.4483643 1.3226166l1.7435303 2.1365662l-2.7805176 0.30731964l0.7732544 2.625328l-2.689331 -0.7548599l-0.31481934 2.7143173l-2.1887207 -1.7019958l-1.3548584 2.3900757l-1.3548584 -2.3900757l-2.1887207 1.7019958l-0.3147583 -2.7143173l-2.689392 0.7548599l0.7732544 -2.625328l-2.7805176 -0.30731964l1.7435303 -2.1365662z" fill-rule="evenodd"/><path stroke="#000000" stroke-width="1.0" stroke-linejoin="round" stroke-linecap="butt" d="m514.86615 113.59843l2.4483643 -1.3226166l-1.7435303 -2.1365738l2.7805176 -0.307312l-0.7732544 -2.625328l2.689392 0.7548523l0.3147583 -2.7143173l2.1887207 1.7020035l1.3548584 -2.3900833l1.3548584 2.3900833l2.1887207 -1.7020035l0.31481934 2.7143173l2.689331 -0.7548523l-0.7732544 2.625328l2.7805176 0.307312l-1.7435303 2.1365738l2.4483643 1.3226166l-2.4483643 1.3226166l1.7435303 2.1365662l-2.7805176 0.30731964l0.7732544 2.625328l-2.689331 -0.7548599l-0.31481934 2.7143173l-2.1887207 -1.7019958l-1.3548584 2.3900757l-1.3548584 -2.3900757l-2.1887207 1.7019958l-0.3147583 -2.7143173l-2.689392 0.7548599l0.7732544 -2.625328l-2.7805176 -0.30731964l1.7435303 -2.1365662z" fill-rule="evenodd"/><path fill="#a2c4c9" d="m344.1181 91.32561l0 0c0 -4.1429443 3.3585205 -7.501457 7.501465 -7.501457l30.004944 0l0 0c1.9895325 0 3.8975525 0.790329 5.304352 2.1971207c1.4067993 1.4067993 2.197113 3.314827 2.197113 5.3043365l0 34.4144c0 4.1429443 -3.3585205 7.501465 -7.501465 7.501465l-30.004944 0c-4.1429443 0 -7.501465 -3.3585205 -7.501465 -7.501465z" fill-rule="evenodd"/><path stroke="#000000" stroke-width="1.0" stroke-linejoin="round" stroke-linecap="butt" d="m344.1181 91.32561l0 0c0 -4.1429443 3.3585205 -7.501457 7.501465 -7.501457l30.004944 0l0 0c1.9895325 0 3.8975525 0.790329 5.304352 2.1971207c1.4067993 1.4067993 2.197113 3.314827 2.197113 5.3043365l0 34.4144c0 4.1429443 -3.3585205 7.501465 -7.501465 7.501465l-30.004944 0c-4.1429443 0 -7.501465 -3.3585205 -7.501465 -7.501465z" fill-rule="evenodd"/><path fill="#000000" fill-opacity="0.0" d="m377.22046 69.267715l0 0c-3.1575317 0 -6.18573 1.4169235 -8.418457 3.9390717c-2.232727 2.5221405 -3.48703 5.9429016 -3.48703 9.50975l11.905487 0z" fill-rule="evenodd"/><path fill="#000000" fill-opacity="0.0" d="m377.22046 69.267715l0 0c-3.1575317 0 -6.18573 1.4169235 -8.418457 3.9390717c-2.232727 2.5221405 -3.48703 5.9429016 -3.48703 9.50975" fill-rule="evenodd"/><path stroke="#666666" stroke-width="3.0" stroke-linejoin="round" stroke-linecap="butt" d="m377.22046 69.267715l0 0c-3.1575317 0 -6.18573 1.4169235 -8.418457 3.9390717c-2.232727 2.5221405 -3.48703 5.9429016 -3.48703 9.50975" fill-rule="evenodd"/><path fill="#d9d9d9" d="m344.1181 102.80052l45.007874 0l0 11.464569l-45.007874 0z" fill-rule="evenodd"/><path fill="#000000" d="m458.89502 53.32021l0 0c0 -3.1658516 3.5393982 -5.7322845 7.9055176 -5.7322845l0 0c4.366089 0 7.905487 2.566433 7.905487 5.7322845l0 0c0 3.1658516 -3.5393982 5.7322845 -7.905487 5.7322845l0 0c-4.3661194 0 -7.9055176 -2.566433 -7.9055176 -5.7322845z" fill-rule="evenodd"/><path stroke="#000000" stroke-width="1.0" stroke-linejoin="round" stroke-linecap="butt" d="m458.89502 53.32021l0 0c0 -3.1658516 3.5393982 -5.7322845 7.9055176 -5.7322845l0 0c4.366089 0 7.905487 2.566433 7.905487 5.7322845l0 0c0 3.1658516 -3.5393982 5.7322845 -7.905487 5.7322845l0 0c-4.3661194 0 -7.9055176 -2.566433 -7.9055176 -5.7322845z" fill-rule="evenodd"/><path fill="#000000" d="m484.40945 53.32021l0 0c0 -3.1658516 3.5393982 -5.7322845 7.9055176 -5.7322845l0 0c4.366089 0 7.905487 2.566433 7.905487 5.7322845l0 0c0 3.1658516 -3.5393982 5.7322845 -7.905487 5.7322845l0 0c-4.3661194 0 -7.9055176 -2.566433 -7.9055176 -5.7322845z" fill-rule="evenodd"/><path stroke="#000000" stroke-width="1.0" stroke-linejoin="round" stroke-linecap="butt" d="m484.40945 53.32021l0 0c0 -3.1658516 3.5393982 -5.7322845 7.9055176 -5.7322845l0 0c4.366089 0 7.905487 2.566433 7.905487 5.7322845l0 0c0 3.1658516 -3.5393982 5.7322845 -7.905487 5.7322845l0 0c-4.3661194 0 -7.9055176 -2.566433 -7.9055176 -5.7322845z" fill-rule="evenodd"/><path fill="#ffffff" d="m304.6299 218.37784l0 0c0 -12.124176 10.075378 -21.952759 22.503937 -21.952759l0 0c5.9684143 0 11.692383 2.3128815 15.912689 6.4298096c4.2203064 4.1169434 6.5912476 9.700714 6.5912476 15.522949l0 0c0 12.124176 -10.075348 21.952759 -22.503937 21.952759l0 0c-12.428558 0 -22.503937 -9.828583 -22.503937 -21.952759z" fill-rule="evenodd"/><path stroke="#000000" stroke-width="1.0" stroke-linejoin="round" stroke-linecap="butt" d="m304.6299 218.37784l0 0c0 -12.124176 10.075378 -21.952759 22.503937 -21.952759l0 0c5.9684143 0 11.692383 2.3128815 15.912689 6.4298096c4.2203064 4.1169434 6.5912476 9.700714 6.5912476 15.522949l0 0c0 12.124176 -10.075348 21.952759 -22.503937 21.952759l0 0c-12.428558 0 -22.503937 -9.828583 -22.503937 -21.952759z" fill-rule="evenodd"/><path fill="#ffffff" d="m457.49606 218.37653l0 0c0 -12.124176 10.075348 -21.952759 22.503937 -21.952759l0 0c5.9684143 0 11.692383 2.3128815 15.912689 6.4298096c4.2203064 4.1169434 6.5912476 9.700714 6.5912476 15.522949l0 0c0 12.124176 -10.075348 21.952759 -22.503937 21.952759l0 0c-12.428589 0 -22.503937 -9.828583 -22.503937 -21.952759z" fill-rule="evenodd"/><path stroke="#000000" stroke-width="1.0" stroke-linejoin="round" stroke-linecap="butt" d="m457.49606 218.37653l0 0c0 -12.124176 10.075348 -21.952759 22.503937 -21.952759l0 0c5.9684143 0 11.692383 2.3128815 15.912689 6.4298096c4.2203064 4.1169434 6.5912476 9.700714 6.5912476 15.522949l0 0c0 12.124176 -10.075348 21.952759 -22.503937 21.952759l0 0c-12.428589 0 -22.503937 -9.828583 -22.503937 -21.952759z" fill-rule="evenodd"/><path fill="#ffffff" d="m610.3622 218.37653l0 0c0 -12.124176 10.075378 -21.952759 22.503967 -21.952759l0 0c5.968384 0 11.692383 2.3128815 15.912659 6.4298096c4.220337 4.1169434 6.5912476 9.700714 6.5912476 15.522949l0 0c0 12.124176 -10.075317 21.952759 -22.503906 21.952759l0 0c-12.428589 0 -22.503967 -9.828583 -22.503967 -21.952759z" fill-rule="evenodd"/><path stroke="#000000" stroke-width="1.0" stroke-linejoin="round" stroke-linecap="butt" d="m610.3622 218.37653l0 0c0 -12.124176 10.075378 -21.952759 22.503967 -21.952759l0 0c5.968384 0 11.692383 2.3128815 15.912659 6.4298096c4.220337 4.1169434 6.5912476 9.700714 6.5912476 15.522949l0 0c0 12.124176 -10.075317 21.952759 -22.503906 21.952759l0 0c-12.428589 0 -22.503967 -9.828583 -22.503967 -21.952759z" fill-rule="evenodd"/><path fill="#ffffff" d="m304.6299 312.34634l0 0c0 -12.124176 10.075378 -21.952759 22.503937 -21.952759l0 0c5.9684143 0 11.692383 2.3128662 15.912689 6.4298096c4.2203064 4.1169434 6.5912476 9.700714 6.5912476 15.522949l0 0c0 12.124176 -10.075348 21.952759 -22.503937 21.952759l0 0c-12.428558 0 -22.503937 -9.828583 -22.503937 -21.952759z" fill-rule="evenodd"/><path stroke="#000000" stroke-width="1.0" stroke-linejoin="round" stroke-linecap="butt" d="m304.6299 312.34634l0 0c0 -12.124176 10.075378 -21.952759 22.503937 -21.952759l0 0c5.9684143 0 11.692383 2.3128662 15.912689 6.4298096c4.2203064 4.1169434 6.5912476 9.700714 6.5912476 15.522949l0 0c0 12.124176 -10.075348 21.952759 -22.503937 21.952759l0 0c-12.428558 0 -22.503937 -9.828583 -22.503937 -21.952759z" fill-rule="evenodd"/><path fill="#ffffff" d="m457.49606 312.34634l0 0c0 -12.124176 10.075348 -21.952759 22.503937 -21.952759l0 0c5.9684143 0 11.692383 2.3128662 15.912689 6.4298096c4.2203064 4.1169434 6.5912476 9.700714 6.5912476 15.522949l0 0c0 12.124176 -10.075348 21.952759 -22.503937 21.952759l0 0c-12.428589 0 -22.503937 -9.828583 -22.503937 -21.952759z" fill-rule="evenodd"/><path stroke="#000000" stroke-width="1.0" stroke-linejoin="round" stroke-linecap="butt" d="m457.49606 312.34634l0 0c0 -12.124176 10.075348 -21.952759 22.503937 -21.952759l0 0c5.9684143 0 11.692383 2.3128662 15.912689 6.4298096c4.2203064 4.1169434 6.5912476 9.700714 6.5912476 15.522949l0 0c0 12.124176 -10.075348 21.952759 -22.503937 21.952759l0 0c-12.428589 0 -22.503937 -9.828583 -22.503937 -21.952759z" fill-rule="evenodd"/><path fill="#ffffff" d="m610.3622 312.34634l0 0c0 -12.124176 10.075378 -21.952759 22.503967 -21.952759l0 0c5.968384 0 11.692383 2.3128662 15.912659 6.4298096c4.220337 4.1169434 6.5912476 9.700714 6.5912476 15.522949l0 0c0 12.124176 -10.075317 21.952759 -22.503906 21.952759l0 0c-12.428589 0 -22.503967 -9.828583 -22.503967 -21.952759z" fill-rule="evenodd"/><path stroke="#000000" stroke-width="1.0" stroke-linejoin="round" stroke-linecap="butt" d="m610.3622 312.34634l0 0c0 -12.124176 10.075378 -21.952759 22.503967 -21.952759l0 0c5.968384 0 11.692383 2.3128662 15.912659 6.4298096c4.220337 4.1169434 6.5912476 9.700714 6.5912476 15.522949l0 0c0 12.124176 -10.075317 21.952759 -22.503906 21.952759l0 0c-12.428589 0 -22.503967 -9.828583 -22.503967 -21.952759z" fill-rule="evenodd"/></g></svg>