<svg version="1.1" viewBox="0.0 0.0 960.0 540.0" fill="none" stroke="none" stroke-linecap="square" stroke-miterlimit="10" xmlns:xlink="http://www.w3.org/1999/xlink" xmlns="http://www.w3.org/2000/svg"><clipPath id="p.0"><path d="m0 0l960.0 0l0 540.0l-960.0 0l0 -540.0z" clip-rule="nonzero"/></clipPath><g clip-path="url(#p.0)"><path fill="#fff2cc" d="m0 0l960.0 0l0 540.0l-960.0 0z" fill-rule="evenodd"/><defs><linearGradient id="p.1" gradientUnits="userSpaceOnUse" gradientTransform="matrix(13.382454934233488 0.0 0.0 13.382454934233488 0.0 0.0)" spreadMethod="pad" x1="9.436625331829487E-10" y1="26.966532347382138" x2="-4.84434104419912E-5" y2="40.34898728152794"><stop offset="0.0" stop-color="#696969"/><stop offset="1.0" stop-color="#1d1d1d"/></linearGradient></defs><path fill="url(#p.1)" d="m0 360.8819l960.8819 0l0 179.08661l-960.8819 0z" fill-rule="evenodd"/><path fill="#8b776a" d="m0 360.87665l57.646023 -252.34647l845.58984 0l57.646057 252.34647z" fill-rule="evenodd"/><path stroke="#000000" stroke-width="1.0" stroke-linejoin="round" stroke-linecap="butt" d="m0 360.87665l57.646023 -252.34647l845.58984 0l57.646057 252.34647z" fill-rule="evenodd"/><defs><radialGradient id="p.2" gradientUnits="userSpaceOnUse" gradientTransform="matrix(12.981990620186043 0.0 0.0 12.981990620186043 0.0 0.0)" spreadMethod="pad" cx="37.0082646751292" cy="19.54090073303498" fx="37.0082646751292" fy="19.54090073303498" r="12.981990814208984"><stop offset="0.0" stop-color="#ffffff"/><stop offset="1.0" stop-color="#b3b3b3"/></radialGradient></defs><path fill="url(#p.2)" d="m341.13385 253.6798l0 0c0 -52.38443 62.369904 -94.8504 139.3071 -94.8504l0 0c76.937164 0 139.3071 42.465973 139.3071 94.8504l0 0c0 52.384415 -62.369934 94.85039 -139.3071 94.85039l0 0c-76.937195 0 -139.3071 -42.465973 -139.3071 -94.85039z" fill-rule="evenodd"/><path stroke="#000000" stroke-width="2.0" stroke-linejoin="round" stroke-linecap="butt" d="m341.13385 253.6798l0 0c0 -52.38443 62.369904 -94.8504 139.3071 -94.8504l0 0c76.937164 0 139.3071 42.465973 139.3071 94.8504l0 0c0 52.384415 -62.369934 94.85039 -139.3071 94.85039l0 0c-76.937195 0 -139.3071 -42.465973 -139.3071 -94.85039z" fill-rule="evenodd"/><path fill="#f3f3f3" d="m297.7953 117.20621l0 0c0 -4.7923584 3.8849792 -8.677338 8.677338 -8.677338l347.05478 0c2.3013306 0 4.508484 0.9142151 6.135803 2.5415344c1.6273193 1.6273193 2.541504 3.8344345 2.541504 6.135803l0 34.708313c0 4.7923737 -3.8849487 8.677338 -8.677307 8.677338l-347.05478 0c-4.7923584 0 -8.677338 -3.884964 -8.677338 -8.677338z" fill-rule="evenodd"/><path stroke="#000000" stroke-width="1.0" stroke-linejoin="round" stroke-linecap="butt" d="m297.7953 117.20621l0 0c0 -4.7923584 3.8849792 -8.677338 8.677338 -8.677338l347.05478 0c2.3013306 0 4.508484 0.9142151 6.135803 2.5415344c1.6273193 1.6273193 2.541504 3.8344345 2.541504 6.135803l0 34.708313c0 4.7923737 -3.8849487 8.677338 -8.677307 8.677338l-347.05478 0c-4.7923584 0 -8.677338 -3.884964 -8.677338 -8.677338z" fill-rule="evenodd"/><path fill="#f3f3f3" d="m431.90552 34.99767l0 0c0 -8.120632 6.583069 -14.703707 14.703705 -14.703707l66.781586 0c3.8996582 0 7.6395874 1.5491371 10.397095 4.306616c2.7574463 2.7574806 4.3065796 6.497425 4.3065796 10.397091l0 58.81306c0 8.120636 -6.583069 14.703705 -14.703674 14.703705l-66.781586 0l0 0c-8.120636 0 -14.703705 -6.583069 -14.703705 -14.703705z" fill-rule="evenodd"/><path stroke="#000000" stroke-width="1.0" stroke-linejoin="round" stroke-linecap="butt" d="m431.90552 34.99767l0 0c0 -8.120632 6.583069 -14.703707 14.703705 -14.703707l66.781586 0c3.8996582 0 7.6395874 1.5491371 10.397095 4.306616c2.7574463 2.7574806 4.3065796 6.497425 4.3065796 10.397091l0 58.81306c0 8.120636 -6.583069 14.703705 -14.703674 14.703705l-66.781586 0l0 0c-8.120636 0 -14.703705 -6.583069 -14.703705 -14.703705z" fill-rule="evenodd"/><defs><linearGradient id="p.3" gradientUnits="userSpaceOnUse" gradientTransform="matrix(-10.554080540546536 0.0 0.0 -10.554080540546536 0.0 0.0)" spreadMethod="pad" x1="-47.86307946608825" y1="3.291943640825277" x2="-38.72290615042313" y2="-1.9849728656154193"><stop offset="0.0" stop-color="#f2f2f2"/><stop offset="0.9999999" stop-color="#cccccc"/><stop offset="0.99999994" stop-color="#dfdfdf"/><stop offset="1.0" stop-color="#a6a6a6"/></linearGradient></defs><path fill="url(#p.3)" d="m530.2992 45.217846l0 0c0 -6.7013435 -22.519714 -12.133858 -50.299194 -12.133858c-27.77948 0 -50.299225 5.432514 -50.299225 12.133858l0 -24.267715c0 -6.7013445 22.519745 -12.133858 50.299225 -12.133858c27.77948 0 50.299194 5.432513 50.299194 12.133858z" fill-rule="evenodd"/><defs><linearGradient id="p.4" gradientUnits="userSpaceOnUse" gradientTransform="matrix(-10.554080540546536 0.0 0.0 -10.554080540546536 0.0 0.0)" spreadMethod="pad" x1="-47.86307946608825" y1="3.291943640825277" x2="-38.72290615042313" y2="-1.9849728656154193"><stop offset="0.0" stop-color="#f2f2f2"/><stop offset="0.9999999" stop-color="#cccccc"/><stop offset="0.99999994" stop-color="#dfdfdf"/><stop offset="1.0" stop-color="#a6a6a6"/></linearGradient></defs><path fill="url(#p.4)" d="m530.2992 45.217846l0 0c0 6.7013474 -22.519714 12.133862 -50.299194 12.133862c-27.77948 0 -50.299225 -5.432514 -50.299225 -12.133862l0 0c0 -6.7013435 22.519745 -12.133858 50.299225 -12.133858c27.77948 0 50.299194 5.432514 50.299194 12.133858z" fill-rule="evenodd"/><path fill="#000000" fill-opacity="0.0" d="m429.70078 45.217846l0 0c0 -6.7013435 22.519745 -12.133858 50.299225 -12.133858c27.77948 0 50.299194 5.432514 50.299194 12.133858l0 0c0 6.7013474 -22.519714 12.133862 -50.299194 12.133862c-27.77948 0 -50.299225 -5.432514 -50.299225 -12.133862l0 -24.267715c0 -6.7013445 22.519745 -12.133858 50.299225 -12.133858c27.77948 0 50.299194 5.432513 50.299194 12.133858l0 24.267715" fill-rule="evenodd"/><path fill="#ffffff" fill-opacity="0.4" d="m530.2992 45.217846l0 0c0 6.7013474 -22.519714 12.133862 -50.299194 12.133862c-27.77948 0 -50.299225 -5.432514 -50.299225 -12.133862l0 0c0 -6.7013435 22.519745 -12.133858 50.299225 -12.133858c27.77948 0 50.299194 5.432514 50.299194 12.133858z" fill-rule="evenodd"/><path stroke="#000000" stroke-width="1.0" stroke-linejoin="round" stroke-linecap="butt" d="m429.70078 45.217846l0 0c0 -6.7013435 22.519745 -12.133858 50.299225 -12.133858c27.77948 0 50.299194 5.432514 50.299194 12.133858l0 0c0 6.7013474 -22.519714 12.133862 -50.299194 12.133862c-27.77948 0 -50.299225 -5.432514 -50.299225 -12.133862l0 -24.267715c0 -6.7013445 22.519745 -12.133858 50.299225 -12.133858c27.77948 0 50.299194 5.432513 50.299194 12.133858l0 24.267715" fill-rule="evenodd"/><path fill="#000000" d="m441.16272 45.44357l0 0c0 -4.627014 7.903778 -8.377953 17.653564 -8.377953l0 0c9.749786 0 17.653534 3.7509384 17.653534 8.377953l0 0c0 4.627014 -7.9037476 8.377953 -17.653534 8.377953l0 0c-9.749786 0 -17.653564 -3.7509384 -17.653564 -8.377953z" fill-rule="evenodd"/><path stroke="#000000" stroke-width="1.0" stroke-linejoin="round" stroke-linecap="butt" d="m441.16272 45.44357l0 0c0 -4.627014 7.903778 -8.377953 17.653564 -8.377953l0 0c9.749786 0 17.653534 3.7509384 17.653534 8.377953l0 0c0 4.627014 -7.9037476 8.377953 -17.653534 8.377953l0 0c-9.749786 0 -17.653564 -3.7509384 -17.653564 -8.377953z" fill-rule="evenodd"/><path fill="#000000" d="m483.63516 45.44357l0 0c0 -4.627014 7.903778 -8.377953 17.653564 -8.377953l0 0c9.749756 0 17.653534 3.7509384 17.653534 8.377953l0 0c0 4.627014 -7.903778 8.377953 -17.653534 8.377953l0 0c-9.749786 0 -17.653564 -3.7509384 -17.653564 -8.377953z" fill-rule="evenodd"/><path stroke="#000000" stroke-width="1.0" stroke-linejoin="round" stroke-linecap="butt" d="m483.63516 45.44357l0 0c0 -4.627014 7.903778 -8.377953 17.653564 -8.377953l0 0c9.749756 0 17.653534 3.7509384 17.653534 8.377953l0 0c0 4.627014 -7.903778 8.377953 -17.653534 8.377953l0 0c-9.749786 0 -17.653564 -3.7509384 -17.653564 -8.377953z" fill-rule="evenodd"/><path fill="#cfe2f3" d="m327.5748 134.56168l6.416565 -3.5507812l-4.5693054 -5.735985l7.2870483 -0.8250427l-2.0265198 -7.048134l7.048126 2.026535l0.8250427 -7.2870483l5.735962 4.569313l3.5508118 -6.4165726l3.5507812 6.4165726l5.7359924 -4.569313l0.8250427 7.2870483l7.048126 -2.026535l-2.0265503 7.048134l7.2870483 0.8250427l-4.5693054 5.735985l6.416565 3.5507812l-6.416565 3.5507965l4.5693054 5.735977l-7.2870483 0.8250427l2.0265503 7.048126l-7.048126 -2.026535l-0.8250427 7.2870483l-5.7359924 -4.5693054l-3.5507812 6.416565l-3.5508118 -6.416565l-5.735962 4.5693054l-0.8250427 -7.2870483l-7.048126 2.026535l2.0265198 -7.048126l-7.2870483 -0.8250427l4.5693054 -5.735977z" fill-rule="evenodd"/><path stroke="#000000" stroke-width="1.0" stroke-linejoin="round" stroke-linecap="butt" d="m327.5748 134.56168l6.416565 -3.5507812l-4.5693054 -5.735985l7.2870483 -0.8250427l-2.0265198 -7.048134l7.048126 2.026535l0.8250427 -7.2870483l5.735962 4.569313l3.5508118 -6.4165726l3.5507812 6.4165726l5.7359924 -4.569313l0.8250427 7.2870483l7.048126 -2.026535l-2.0265503 7.048134l7.2870483 0.8250427l-4.5693054 5.735985l6.416565 3.5507812l-6.416565 3.5507965l4.5693054 5.735977l-7.2870483 0.8250427l2.0265503 7.048126l-7.048126 -2.026535l-0.8250427 7.2870483l-5.7359924 -4.5693054l-3.5507812 6.416565l-3.5508118 -6.416565l-5.735962 4.5693054l-0.8250427 -7.2870483l-7.048126 2.026535l2.0265198 -7.048126l-7.2870483 -0.8250427l4.5693054 -5.735977z" fill-rule="evenodd"/><path fill="#ea9999" d="m583.8898 134.56168l6.416565 -3.5507812l-4.569336 -5.735985l7.2870483 -0.8250427l-2.0264893 -7.048134l7.0480957 2.026535l0.82507324 -7.2870483l5.735962 4.569313l3.5507812 -6.4165726l3.5507812 6.4165726l5.736023 -4.569313l0.8250122 7.2870483l7.0481567 -2.026535l-2.0265503 7.048134l7.2870483 0.8250427l-4.569336 5.735985l6.416565 3.5507812l-6.416565 3.5507965l4.569336 5.735977l-7.2870483 0.8250427l2.0265503 7.048126l-7.0481567 -2.026535l-0.8250122 7.2870483l-5.736023 -4.5693054l-3.5507812 6.416565l-3.5507812 -6.416565l-5.735962 4.5693054l-0.82507324 -7.2870483l-7.0480957 2.026535l2.0264893 -7.048126l-7.2870483 -0.8250427l4.569336 -5.735977z" fill-rule="evenodd"/><path stroke="#000000" stroke-width="1.0" stroke-linejoin="round" stroke-linecap="butt" d="m583.8898 134.56168l6.416565 -3.5507812l-4.569336 -5.735985l7.2870483 -0.8250427l-2.0264893 -7.048134l7.0480957 2.026535l0.82507324 -7.2870483l5.735962 4.569313l3.5507812 -6.4165726l3.5507812 6.4165726l5.736023 -4.569313l0.8250122 7.2870483l7.0481567 -2.026535l-2.0265503 7.048134l7.2870483 0.8250427l-4.569336 5.735985l6.416565 3.5507812l-6.416565 3.5507965l4.569336 5.735977l-7.2870483 0.8250427l2.0265503 7.048126l-7.0481567 -2.026535l-0.8250122 7.2870483l-5.736023 -4.5693054l-3.5507812 6.416565l-3.5507812 -6.416565l-5.735962 4.5693054l-0.82507324 -7.2870483l-7.0480957 2.026535l2.0264893 -7.048126l-7.2870483 -0.8250427l4.569336 -5.735977z" fill-rule="evenodd"/><path fill="#a2c4c9" d="m91.76378 78.08972l0 0c0 -13.402954 10.865242 -24.2682 24.268204 -24.2682l110.29825 0c6.436325 0 12.609039 2.55682 17.160202 7.107994c4.551178 4.5511665 7.1079865 10.723881 7.1079865 17.160206l0 97.0699c0 13.402954 -10.865234 24.268204 -24.268188 24.268204l-110.29825 0l0 0c-13.402962 0 -24.268204 -10.86525 -24.268204 -24.268204z" fill-rule="evenodd"/><path stroke="#000000" stroke-width="1.0" stroke-linejoin="round" stroke-linecap="butt" d="m91.76378 78.08972l0 0c0 -13.402954 10.865242 -24.2682 24.268204 -24.2682l110.29825 0c6.436325 0 12.609039 2.55682 17.160202 7.107994c4.551178 4.5511665 7.1079865 10.723881 7.1079865 17.160206l0 97.0699c0 13.402954 -10.865234 24.268204 -24.268188 24.268204l-110.29825 0l0 0c-13.402962 0 -24.268204 -10.86525 -24.268204 -24.268204z" fill-rule="evenodd"/><path fill="#000000" fill-opacity="0.0" d="m212.20998 14.118111l0 0c-26.56186 0 -48.094498 17.972065 -48.094498 40.14173l48.094498 0z" fill-rule="evenodd"/><path fill="#000000" fill-opacity="0.0" d="m212.20998 14.118111l0 0c-26.56186 0 -48.094498 17.972065 -48.094498 40.14173" fill-rule="evenodd"/><path stroke="#666666" stroke-width="3.0" stroke-linejoin="round" stroke-linecap="butt" d="m212.20998 14.118111l0 0c-26.56186 0 -48.094498 17.972065 -48.094498 40.14173" fill-rule="evenodd"/><path fill="#f3f3f3" d="m91.76378 105.002625l158.83464 0l0 43.244095l-158.83464 0z" fill-rule="evenodd"/><path fill="#f3f3f3" d="m411.66928 253.6798l0 0c0 -30.936646 30.592712 -56.015747 68.33072 -56.015747l0 0c37.738037 0 68.33069 25.079102 68.33069 56.015747l0 0c0 30.93663 -30.592651 56.01573 -68.33069 56.01573l0 0c-37.738007 0 -68.33072 -25.079102 -68.33072 -56.01573z" fill-rule="evenodd"/><path stroke="#000000" stroke-width="1.0" stroke-linejoin="round" stroke-linecap="butt" d="m411.66928 253.6798l0 0c0 -30.936646 30.592712 -56.015747 68.33072 -56.015747l0 0c37.738037 0 68.33069 25.079102 68.33069 56.015747l0 0c0 30.93663 -30.592651 56.01573 -68.33069 56.01573l0 0c-37.738007 0 -68.33072 -25.079102 -68.33072 -56.01573z" fill-rule="evenodd"/><path fill="#d5a6bd" d="m221.48918 17.778084l0 0c1.4935913 -0.8003864 2.9721527 1.8274422 3.8082733 6.7684c0.8361206 4.940958 0.8831787 11.328512 0.12120056 16.45218l0 0c0.86842346 1.8149605 1.4680176 5.1368675 1.6174011 8.960911c0.1493988 3.8240433 -0.16897583 7.7010727 -0.8587799 10.458363l0 0c0.7873688 1.5461121 1.316391 4.581932 1.3993225 8.0301895c0.08293152 3.448265 -0.2919464 6.8209534 -0.9916229 8.921257l0 0c0.83461 2.7932816 1.1860199 7.2374573 0.90216064 11.409515c-0.28385925 4.172058 -1.1519928 7.322647 -2.2287598 8.088501l0 0c-0.23704529 3.4222412 -0.83961487 6.272896 -1.6520386 7.815445c-0.81243896 1.5425568 -1.7550201 1.625679 -2.5842285 0.22790527l0 0c-1.1137085 3.3699112 -2.5977173 4.1582184 -3.8982239 2.0707397c-1.3004913 -2.0874786 -2.222107 -6.7371216 -2.4208832 -12.213768c-1.2205658 -0.038597107 -2.3405457 -2.6747742 -2.9282532 -6.892418c-0.58769226 -4.2176437 -0.5513458 -9.358162 0.095047 -13.44017l0 0c-1.461853 -1.7387238 -2.5374603 -6.632637 -2.7621307 -12.567402c-0.22467041 -5.934761 0.441864 -11.846443 1.7116547 -15.180981l0 0c-0.625885 -4.087448 -0.80618286 -8.992043 -0.5002289 -13.60741c0.30596924 -4.615366 1.072403 -8.552729 2.1264343 -10.923897l0 0c-0.12411499 -4.176857 0.42539978 -8.2153015 1.3758087 -10.111066c0.95040894 -1.8957653 2.099411 -1.2452888 2.8767548 1.6286001l0 0c0.556839 -3.7258644 1.6618195 -5.6270247 2.7387085 -4.712101c1.0769043 0.91492367 1.8816986 4.438607 1.9947205 8.733587z" fill-rule="evenodd"/><path fill="#000000" fill-opacity="0.0" d="m216.6982 13.674034l0 0c-0.26278687 1.7582464 -0.38198853 3.7894344 -0.3415985 5.8208427m-3.9110565 2.6607075c0.0259552 0.873579 0.08091736 1.7298546 0.16348267 2.5467415m-1.7896271 21.983343c0.23396301 -0.614418 0.48397827 -1.1288414 0.7457886 -1.5345039m0.30473328 29.283947l0 0c0.26651 0.3169937 0.54081726 0.522377 0.81832886 0.61273193m2.0147705 19.719093c1.2994843 0.04109192 2.4893036 -2.8655472 3.0583954 -7.4714355m3.2605896 17.614365c-0.44250488 -0.74591064 -0.83503723 -1.8846207 -1.1468353 -3.3268585m5.383209 -4.71579l0 0c-0.17869568 0.12709045 -0.3600769 0.18591309 -0.541626 0.17563629m1.8681641 -19.673325l0 0c-0.20819092 -0.696785 -0.44085693 -1.2708435 -0.6907196 -1.7042999m0.28311157 -15.247307l0 0c-0.18910217 -0.37132645 -0.38920593 -0.64860916 -0.5957031 -0.82546234m-0.16293335 -18.594093l0 0c-0.16123962 1.0841637 -0.3553009 2.0871658 -0.57792664 2.9869652m-3.3515625 -26.207249l0 0c-0.20585632 0.110313416 -0.40916443 0.28461647 -0.6080475 0.52127457" fill-rule="evenodd"/><path stroke="#000000" stroke-width="1.0" stroke-linejoin="round" stroke-linecap="butt" d="m221.48918 17.778084l0 0c1.4935913 -0.8003864 2.9721527 1.8274422 3.8082733 6.7684c0.8361206 4.940958 0.8831787 11.328512 0.12120056 16.45218l0 0c0.86842346 1.8149605 1.4680176 5.1368675 1.6174011 8.960911c0.1493988 3.8240433 -0.16897583 7.7010727 -0.8587799 10.458363l0 0c0.7873688 1.5461121 1.316391 4.581932 1.3993225 8.0301895c0.08293152 3.448265 -0.2919464 6.8209534 -0.9916229 8.921257l0 0c0.83461 2.7932816 1.1860199 7.2374573 0.90216064 11.409515c-0.28385925 4.172058 -1.1519928 7.322647 -2.2287598 8.088501l0 0c-0.23704529 3.4222412 -0.83961487 6.272896 -1.6520386 7.815445c-0.81243896 1.5425568 -1.7550201 1.625679 -2.5842285 0.22790527l0 0c-1.1137085 3.3699112 -2.5977173 4.1582184 -3.8982239 2.0707397c-1.3004913 -2.0874786 -2.222107 -6.7371216 -2.4208832 -12.213768c-1.2205658 -0.038597107 -2.3405457 -2.6747742 -2.9282532 -6.892418c-0.58769226 -4.2176437 -0.5513458 -9.358162 0.095047 -13.44017l0 0c-1.461853 -1.7387238 -2.5374603 -6.632637 -2.7621307 -12.567402c-0.22467041 -5.934761 0.441864 -11.846443 1.7116547 -15.180981l0 0c-0.625885 -4.087448 -0.80618286 -8.992043 -0.5002289 -13.60741c0.30596924 -4.615366 1.072403 -8.552729 2.1264343 -10.923897l0 0c-0.12411499 -4.176857 0.42539978 -8.2153015 1.3758087 -10.111066c0.95040894 -1.8957653 2.099411 -1.2452888 2.8767548 1.6286001l0 0c0.556839 -3.7258644 1.6618195 -5.6270247 2.7387085 -4.712101c1.0769043 0.91492367 1.8816986 4.438607 1.9947205 8.733587z" fill-rule="evenodd"/><path stroke="#000000" stroke-width="1.0" stroke-linejoin="round" stroke-linecap="butt" d="m216.6982 13.674034l0 0c-0.26278687 1.7582464 -0.38198853 3.7894344 -0.3415985 5.8208427m-3.9110565 2.6607075c0.0259552 0.873579 0.08091736 1.7298546 0.16348267 2.5467415m-1.7896271 21.983343c0.23396301 -0.614418 0.48397827 -1.1288414 0.7457886 -1.5345039m0.30473328 29.283947l0 0c0.26651 0.3169937 0.54081726 0.522377 0.81832886 0.61273193m2.0147705 19.719093c1.2994843 0.04109192 2.4893036 -2.8655472 3.0583954 -7.4714355m3.2605896 17.614365c-0.44250488 -0.74591064 -0.83503723 -1.8846207 -1.1468353 -3.3268585m5.383209 -4.71579l0 0c-0.17869568 0.12709045 -0.3600769 0.18591309 -0.541626 0.17563629m1.8681641 -19.673325l0 0c-0.20819092 -0.696785 -0.44085693 -1.2708435 -0.6907196 -1.7042999m0.28311157 -15.247307l0 0c-0.18910217 -0.37132645 -0.38920593 -0.64860916 -0.5957031 -0.82546234m-0.16293335 -18.594093l0 0c-0.16123962 1.0841637 -0.3553009 2.0871658 -0.57792664 2.9869652m-3.3515625 -26.207249l0 0c-0.20585632 0.110313416 -0.40916443 0.28461647 -0.6080475 0.52127457" fill-rule="evenodd"/></g></svg>