<svg version="1.1" viewBox="0.0 0.0 960.0 540.0" fill="none" stroke="none" stroke-linecap="square" stroke-miterlimit="10" xmlns:xlink="http://www.w3.org/1999/xlink" xmlns="http://www.w3.org/2000/svg"><clipPath id="p.0"><path d="m0 0l960.0 0l0 540.0l-960.0 0l0 -540.0z" clip-rule="nonzero"/></clipPath><g clip-path="url(#p.0)"><path fill="#fff2cc" d="m0 0l960.0 0l0 540.0l-960.0 0z" fill-rule="evenodd"/><defs><linearGradient id="p.1" gradientUnits="userSpaceOnUse" gradientTransform="matrix(13.382454934233488 0.0 0.0 13.382454934233488 0.0 0.0)" spreadMethod="pad" x1="9.436625331829487E-10" y1="26.966532347382138" x2="-4.84434104419912E-5" y2="40.34898728152794"><stop offset="0.0" stop-color="#696969"/><stop offset="1.0" stop-color="#1d1d1d"/></linearGradient></defs><path fill="url(#p.1)" d="m0 360.8819l960.8819 0l0 179.08661l-960.8819 0z" fill-rule="evenodd"/><path fill="#8b776a" d="m0 360.87665l57.646023 -252.34647l845.58984 0l57.646057 252.34647z" fill-rule="evenodd"/><path stroke="#000000" stroke-width="1.0" stroke-linejoin="round" stroke-linecap="butt" d="m0 360.87665l57.646023 -252.34647l845.58984 0l57.646057 252.34647z" fill-rule="evenodd"/><defs><radialGradient id="p.2" gradientUnits="userSpaceOnUse" gradientTransform="matrix(12.981990620186043 0.0 0.0 12.981990620186043 0.0 0.0)" spreadMethod="pad" cx="37.0082646751292" cy="19.54090073303498" fx="37.0082646751292" fy="19.54090073303498" r="12.981990814208984"><stop offset="0.0" stop-color="#ffffff"/><stop offset="1.0" stop-color="#b3b3b3"/></radialGradient></defs><path fill="url(#p.2)" d="m341.13385 253.6798l0 0c0 -52.38443 62.369904 -94.8504 139.3071 -94.8504l0 0c76.937164 0 139.3071 42.465973 139.3071 94.8504l0 0c0 52.384415 -62.369934 94.85039 -139.3071 94.85039l0 0c-76.937195 0 -139.3071 -42.465973 -139.3071 -94.85039z" fill-rule="evenodd"/><path stroke="#000000" stroke-width="2.0" stroke-linejoin="round" stroke-linecap="butt" d="m341.13385 253.6798l0 0c0 -52.38443 62.369904 -94.8504 139.3071 -94.8504l0 0c76.937164 0 139.3071 42.465973 139.3071 94.8504l0 0c0 52.384415 -62.369934 94.85039 -139.3071 94.85039l0 0c-76.937195 0 -139.3071 -42.465973 -139.3071 -94.85039z" fill-rule="evenodd"/><path fill="#f3f3f3" d="m297.7953 117.20621l0 0c0 -4.7923584 3.8849792 -8.677338 8.677338 -8.677338l347.05478 0c2.3013306 0 4.508484 0.9142151 6.135803 2.5415344c1.6273193 1.6273193 2.541504 3.8344345 2.541504 6.135803l0 34.708313c0 4.7923737 -3.8849487 8.677338 -8.677307 8.677338l-347.05478 0c-4.7923584 0 -8.677338 -3.884964 -8.677338 -8.677338z" fill-rule="evenodd"/><path stroke="#000000" stroke-width="1.0" stroke-linejoin="round" stroke-linecap="butt" d="m297.7953 117.20621l0 0c0 -4.7923584 3.8849792 -8.677338 8.677338 -8.677338l347.05478 0c2.3013306 0 4.508484 0.9142151 6.135803 2.5415344c1.6273193 1.6273193 2.541504 3.8344345 2.541504 6.135803l0 34.708313c0 4.7923737 -3.8849487 8.677338 -8.677307 8.677338l-347.05478 0c-4.7923584 0 -8.677338 -3.884964 -8.677338 -8.677338z" fill-rule="evenodd"/><path fill="#f3f3f3" d="m431.90552 34.99767l0 0c0 -8.120632 6.583069 -14.703707 14.703705 -14.703707l66.781586 0c3.8996582 0 7.6395874 1.5491371 10.397095 4.306616c2.7574463 2.7574806 4.3065796 6.497425 4.3065796 10.397091l0 58.81306c0 8.120636 -6.583069 14.703705 -14.703674 14.703705l-66.781586 0l0 0c-8.120636 0 -14.703705 -6.583069 -14.703705 -14.703705z" fill-rule="evenodd"/><path stroke="#000000" stroke-width="1.0" stroke-linejoin="round" stroke-linecap="butt" d="m431.90552 34.99767l0 0c0 -8.120632 6.583069 -14.703707 14.703705 -14.703707l66.781586 0c3.8996582 0 7.6395874 1.5491371 10.397095 4.306616c2.7574463 2.7574806 4.3065796 6.497425 4.3065796 10.397091l0 58.81306c0 8.120636 -6.583069 14.703705 -14.703674 14.703705l-66.781586 0l0 0c-8.120636 0 -14.703705 -6.583069 -14.703705 -14.703705z" fill-rule="evenodd"/><defs><linearGradient id="p.3" gradientUnits="userSpaceOnUse" gradientTransform="matrix(-10.554080540546536 0.0 0.0 -10.554080540546536 0.0 0.0)" spreadMethod="pad" x1="-47.86307946608825" y1="3.291943640825277" x2="-38.72290615042313" y2="-1.9849728656154193"><stop offset="0.0" stop-color="#f2f2f2"/><stop offset="0.9999999" stop-color="#cccccc"/><stop offset="0.99999994" stop-color="#dfdfdf"/><stop offset="1.0" stop-color="#a6a6a6"/></linearGradient></defs><path fill="url(#p.3)" d="m530.2992 45.217846l0 0c0 -6.7013435 -22.519714 -12.133858 -50.299194 -12.133858c-27.77948 0 -50.299225 5.432514 -50.299225 12.133858l0 -24.267715c0 -6.7013445 22.519745 -12.133858 50.299225 -12.133858c27.77948 0 50.299194 5.432513 50.299194 12.133858z" fill-rule="evenodd"/><defs><linearGradient id="p.4" gradientUnits="userSpaceOnUse" gradientTransform="matrix(-10.554080540546536 0.0 0.0 -10.554080540546536 0.0 0.0)" spreadMethod="pad" x1="-47.86307946608825" y1="3.291943640825277" x2="-38.72290615042313" y2="-1.9849728656154193"><stop offset="0.0" stop-color="#f2f2f2"/><stop offset="0.9999999" stop-color="#cccccc"/><stop offset="0.99999994" stop-color="#dfdfdf"/><stop offset="1.0" stop-color="#a6a6a6"/></linearGradient></defs><path fill="url(#p.4)" d="m530.2992 45.217846l0 0c0 6.7013474 -22.519714 12.133862 -50.299194 12.133862c-27.77948 0 -50.299225 -5.432514 -50.299225 -12.133862l0 0c0 -6.7013435 22.519745 -12.133858 50.299225 -12.133858c27.77948 0 50.299194 5.432514 50.299194 12.133858z" fill-rule="evenodd"/><path fill="#000000" fill-opacity="0.0" d="m429.70078 45.217846l0 0c0 -6.7013435 22.519745 -12.133858 50.299225 -12.133858c27.77948 0 50.299194 5.432514 50.299194 12.133858l0 0c0 6.7013474 -22.519714 12.133862 -50.299194 12.133862c-27.77948 0 -50.299225 -5.432514 -50.299225 -12.133862l0 -24.267715c0 -6.7013445 22.519745 -12.133858 50.299225 -12.133858c27.77948 0 50.299194 5.432513 50.299194 12.133858l0 24.267715" fill-rule="evenodd"/><path fill="#ffffff" fill-opacity="0.4" d="m530.2992 45.217846l0 0c0 6.7013474 -22.519714 12.133862 -50.299194 12.133862c-27.77948 0 -50.299225 -5.432514 -50.299225 -12.133862l0 0c0 -6.7013435 22.519745 -12.133858 50.299225 -12.133858c27.77948 0 50.299194 5.432514 50.299194 12.133858z" fill-rule="evenodd"/><path stroke="#000000" stroke-width="1.0" stroke-linejoin="round" stroke-linecap="butt" d="m429.70078 45.217846l0 0c0 -6.7013435 22.519745 -12.133858 50.299225 -12.133858c27.77948 0 50.299194 5.432514 50.299194 12.133858l0 0c0 6.7013474 -22.519714 12.133862 -50.299194 12.133862c-27.77948 0 -50.299225 -5.432514 -50.299225 -12.133862l0 -24.267715c0 -6.7013445 22.519745 -12.133858 50.299225 -12.133858c27.77948 0 50.299194 5.432513 50.299194 12.133858l0 24.267715" fill-rule="evenodd"/><path fill="#000000" d="m441.16272 45.44357l0 0c0 -4.627014 7.903778 -8.377953 17.653564 -8.377953l0 0c9.749786 0 17.653534 3.7509384 17.653534 8.377953l0 0c0 4.627014 -7.9037476 8.377953 -17.653534 8.377953l0 0c-9.749786 0 -17.653564 -3.7509384 -17.653564 -8.377953z" fill-rule="evenodd"/><path stroke="#000000" stroke-width="1.0" stroke-linejoin="round" stroke-linecap="butt" d="m441.16272 45.44357l0 0c0 -4.627014 7.903778 -8.377953 17.653564 -8.377953l0 0c9.749786 0 17.653534 3.7509384 17.653534 8.377953l0 0c0 4.627014 -7.9037476 8.377953 -17.653534 8.377953l0 0c-9.749786 0 -17.653564 -3.7509384 -17.653564 -8.377953z" fill-rule="evenodd"/><path fill="#000000" d="m483.63516 45.44357l0 0c0 -4.627014 7.903778 -8.377953 17.653564 -8.377953l0 0c9.749756 0 17.653534 3.7509384 17.653534 8.377953l0 0c0 4.627014 -7.903778 8.377953 -17.653534 8.377953l0 0c-9.749786 0 -17.653564 -3.7509384 -17.653564 -8.377953z" fill-rule="evenodd"/><path stroke="#000000" stroke-width="1.0" stroke-linejoin="round" stroke-linecap="butt" d="m483.63516 45.44357l0 0c0 -4.627014 7.903778 -8.377953 17.653564 -8.377953l0 0c9.749756 0 17.653534 3.7509384 17.653534 8.377953l0 0c0 4.627014 -7.903778 8.377953 -17.653534 8.377953l0 0c-9.749786 0 -17.653564 -3.7509384 -17.653564 -8.377953z" fill-rule="evenodd"/><path fill="#cfe2f3" d="m327.5748 134.56168l6.416565 -3.5507812l-4.5693054 -5.735985l7.2870483 -0.8250427l-2.0265198 -7.048134l7.048126 2.026535l0.8250427 -7.2870483l5.735962 4.569313l3.5508118 -6.4165726l3.5507812 6.4165726l5.7359924 -4.569313l0.8250427 7.2870483l7.048126 -2.026535l-2.0265503 7.048134l7.2870483 0.8250427l-4.5693054 5.735985l6.416565 3.5507812l-6.416565 3.5507965l4.5693054 5.735977l-7.2870483 0.8250427l2.0265503 7.048126l-7.048126 -2.026535l-0.8250427 7.2870483l-5.7359924 -4.5693054l-3.5507812 6.416565l-3.5508118 -6.416565l-5.735962 4.5693054l-0.8250427 -7.2870483l-7.048126 2.026535l2.0265198 -7.048126l-7.2870483 -0.8250427l4.5693054 -5.735977z" fill-rule="evenodd"/><path stroke="#000000" stroke-width="1.0" stroke-linejoin="round" stroke-linecap="butt" d="m327.5748 134.56168l6.416565 -3.5507812l-4.5693054 -5.735985l7.2870483 -0.8250427l-2.0265198 -7.048134l7.048126 2.026535l0.8250427 -7.2870483l5.735962 4.569313l3.5508118 -6.4165726l3.5507812 6.4165726l5.7359924 -4.569313l0.8250427 7.2870483l7.048126 -2.026535l-2.0265503 7.048134l7.2870483 0.8250427l-4.5693054 5.735985l6.416565 3.5507812l-6.416565 3.5507965l4.5693054 5.735977l-7.2870483 0.8250427l2.0265503 7.048126l-7.048126 -2.026535l-0.8250427 7.2870483l-5.7359924 -4.5693054l-3.5507812 6.416565l-3.5508118 -6.416565l-5.735962 4.5693054l-0.8250427 -7.2870483l-7.048126 2.026535l2.0265198 -7.048126l-7.2870483 -0.8250427l4.5693054 -5.735977z" fill-rule="evenodd"/><path fill="#ea9999" d="m583.8898 134.56168l6.416565 -3.5507812l-4.569336 -5.735985l7.2870483 -0.8250427l-2.0264893 -7.048134l7.0480957 2.026535l0.82507324 -7.2870483l5.735962 4.569313l3.5507812 -6.4165726l3.5507812 6.4165726l5.736023 -4.569313l0.8250122 7.2870483l7.0481567 -2.026535l-2.0265503 7.048134l7.2870483 0.8250427l-4.569336 5.735985l6.416565 3.5507812l-6.416565 3.5507965l4.569336 5.735977l-7.2870483 0.8250427l2.0265503 7.048126l-7.0481567 -2.026535l-0.8250122 7.2870483l-5.736023 -4.5693054l-3.5507812 6.416565l-3.5507812 -6.416565l-5.735962 4.5693054l-0.82507324 -7.2870483l-7.0480957 2.026535l2.0264893 -7.048126l-7.2870483 -0.8250427l4.569336 -5.735977z" fill-rule="evenodd"/><path stroke="#000000" stroke-width="1.0" stroke-linejoin="round" stroke-linecap="butt" d="m583.8898 134.56168l6.416565 -3.5507812l-4.569336 -5.735985l7.2870483 -0.8250427l-2.0264893 -7.048134l7.0480957 2.026535l0.82507324 -7.2870483l5.735962 4.569313l3.5507812 -6.4165726l3.5507812 6.4165726l5.736023 -4.569313l0.8250122 7.2870483l7.0481567 -2.026535l-2.0265503 7.048134l7.2870483 0.8250427l-4.569336 5.735985l6.416565 3.5507812l-6.416565 3.5507965l4.569336 5.735977l-7.2870483 0.8250427l2.0265503 7.048126l-7.0481567 -2.026535l-0.8250122 7.2870483l-5.736023 -4.5693054l-3.5507812 6.416565l-3.5507812 -6.416565l-5.735962 4.5693054l-0.82507324 -7.2870483l-7.0480957 2.026535l2.0264893 -7.048126l-7.2870483 -0.8250427l4.569336 -5.735977z" fill-rule="evenodd"/><path fill="#a2c4c9" d="m91.76378 78.08972l0 0c0 -13.402954 10.865242 -24.2682 24.268204 -24.2682l110.29825 0c6.436325 0 12.609039 2.55682 17.160202 7.107994c4.551178 4.5511665 7.1079865 10.723881 7.1079865 17.160206l0 97.0699c0 13.402954 -10.865234 24.268204 -24.268188 24.268204l-110.29825 0l0 0c-13.402962 0 -24.268204 -10.86525 -24.268204 -24.268204z" fill-rule="evenodd"/><path stroke="#000000" stroke-width="1.0" stroke-linejoin="round" stroke-linecap="butt" d="m91.76378 78.08972l0 0c0 -13.402954 10.865242 -24.2682 24.268204 -24.2682l110.29825 0c6.436325 0 12.609039 2.55682 17.160202 7.107994c4.551178 4.5511665 7.1079865 10.723881 7.1079865 17.160206l0 97.0699c0 13.402954 -10.865234 24.268204 -24.268188 24.268204l-110.29825 0l0 0c-13.402962 0 -24.268204 -10.86525 -24.268204 -24.268204z" fill-rule="evenodd"/><path fill="#000000" fill-opacity="0.0" d="m212.20998 14.118111l0 0c-26.56186 0 -48.094498 17.972065 -48.094498 40.14173l48.094498 0z" fill-rule="evenodd"/><path fill="#000000" fill-opacity="0.0" d="m212.20998 14.118111l0 0c-26.56186 0 -48.094498 17.972065 -48.094498 40.14173" fill-rule="evenodd"/><path stroke="#666666" stroke-width="3.0" stroke-linejoin="round" stroke-linecap="butt" d="m212.20998 14.118111l0 0c-26.56186 0 -48.094498 17.972065 -48.094498 40.14173" fill-rule="evenodd"/><path fill="#f3f3f3" d="m91.76378 105.002625l158.83464 0l0 43.244095l-158.83464 0z" fill-rule="evenodd"/><path fill="#f3f3f3" d="m411.66928 253.6798l0 0c0 -30.936646 30.592712 -56.015747 68.33072 -56.015747l0 0c37.738037 0 68.33069 25.079102 68.33069 56.015747l0 0c0 30.93663 -30.592651 56.01573 -68.33069 56.01573l0 0c-37.738007 0 -68.33072 -25.079102 -68.33072 -56.01573z" fill-rule="evenodd"/><path stroke="#000000" stroke-width="1.0" stroke-linejoin="round" stroke-linecap="butt" d="m411.66928 253.6798l0 0c0 -30.936646 30.592712 -56.015747 68.33072 -56.015747l0 0c37.738037 0 68.33069 25.079102 68.33069 56.015747l0 0c0 30.93663 -30.592651 56.01573 -68.33069 56.01573l0 0c-37.738007 0 -68.33072 -25.079102 -68.33072 -56.01573z" fill-rule="evenodd"/></g></svg>